<mxfile host="app.diagrams.net" modified="2024-05-30T00:42:12.081Z" agent="Mozilla/5.0 (Windows NT 10.0; Win64; x64) AppleWebKit/537.36 (KHTML, like Gecko) Chrome/123.0.0.0 Safari/537.36 OPR/109.0.0.0" etag="l99CfSpHGNbkTDCncZU3" version="24.4.9" type="github">
  <diagram id="C5RBs43oDa-KdzZeNtuy" name="Page-1">
    <mxGraphModel dx="3127" dy="1248" grid="1" gridSize="10" guides="1" tooltips="1" connect="1" arrows="1" fold="1" page="1" pageScale="1" pageWidth="827" pageHeight="1169" math="0" shadow="0">
      <root>
        <mxCell id="WIyWlLk6GJQsqaUBKTNV-0" />
        <mxCell id="WIyWlLk6GJQsqaUBKTNV-1" parent="WIyWlLk6GJQsqaUBKTNV-0" />
        <mxCell id="e1jJYObIYilY-aPVNplS-68" value="Service wledi (ou auth)" style="swimlane;whiteSpace=wrap;html=1;fillColor=#f5f5f5;fontColor=#333333;strokeColor=#666666;" parent="WIyWlLk6GJQsqaUBKTNV-1" vertex="1">
          <mxGeometry x="-437" width="680" height="624" as="geometry" />
        </mxCell>
        <mxCell id="e1jJYObIYilY-aPVNplS-56" value="User" style="swimlane;fontStyle=2;align=left;verticalAlign=top;childLayout=stackLayout;horizontal=1;startSize=26;horizontalStack=0;resizeParent=1;resizeLast=0;collapsible=1;marginBottom=0;rounded=0;shadow=0;strokeWidth=1;" parent="e1jJYObIYilY-aPVNplS-68" vertex="1">
          <mxGeometry x="10" y="30" width="210" height="550" as="geometry">
            <mxRectangle x="230" y="140" width="160" height="26" as="alternateBounds" />
          </mxGeometry>
        </mxCell>
        <mxCell id="e1jJYObIYilY-aPVNplS-58" value="_id:Pkey" style="text;align=left;verticalAlign=top;spacingLeft=4;spacingRight=4;overflow=hidden;rotatable=0;points=[[0,0.5],[1,0.5]];portConstraint=eastwest;rounded=0;shadow=0;html=0;" parent="e1jJYObIYilY-aPVNplS-56" vertex="1">
          <mxGeometry y="26" width="210" height="26" as="geometry" />
        </mxCell>
        <mxCell id="OGS3B3dBSdwTEnX2FD4Q-2" value="activated:Boolean" style="text;align=left;verticalAlign=top;spacingLeft=4;spacingRight=4;overflow=hidden;rotatable=0;points=[[0,0.5],[1,0.5]];portConstraint=eastwest;rounded=0;shadow=0;html=0;" parent="e1jJYObIYilY-aPVNplS-56" vertex="1">
          <mxGeometry y="52" width="210" height="26" as="geometry" />
        </mxCell>
        <mxCell id="OGS3B3dBSdwTEnX2FD4Q-1" value="avatarURL:String" style="text;align=left;verticalAlign=top;spacingLeft=4;spacingRight=4;overflow=hidden;rotatable=0;points=[[0,0.5],[1,0.5]];portConstraint=eastwest;rounded=0;shadow=0;html=0;" parent="e1jJYObIYilY-aPVNplS-56" vertex="1">
          <mxGeometry y="78" width="210" height="26" as="geometry" />
        </mxCell>
        <mxCell id="OGS3B3dBSdwTEnX2FD4Q-4" value="creationDate:Date" style="text;align=left;verticalAlign=top;spacingLeft=4;spacingRight=4;overflow=hidden;rotatable=0;points=[[0,0.5],[1,0.5]];portConstraint=eastwest;rounded=0;shadow=0;html=0;" parent="e1jJYObIYilY-aPVNplS-56" vertex="1">
          <mxGeometry y="104" width="210" height="26" as="geometry" />
        </mxCell>
        <mxCell id="OGS3B3dBSdwTEnX2FD4Q-5" value="email:String" style="text;align=left;verticalAlign=top;spacingLeft=4;spacingRight=4;overflow=hidden;rotatable=0;points=[[0,0.5],[1,0.5]];portConstraint=eastwest;rounded=0;shadow=0;html=0;" parent="e1jJYObIYilY-aPVNplS-56" vertex="1">
          <mxGeometry y="130" width="210" height="26" as="geometry" />
        </mxCell>
        <mxCell id="OGS3B3dBSdwTEnX2FD4Q-7" value="firstName:String" style="text;align=left;verticalAlign=top;spacingLeft=4;spacingRight=4;overflow=hidden;rotatable=0;points=[[0,0.5],[1,0.5]];portConstraint=eastwest;rounded=0;shadow=0;html=0;" parent="e1jJYObIYilY-aPVNplS-56" vertex="1">
          <mxGeometry y="156" width="210" height="26" as="geometry" />
        </mxCell>
        <mxCell id="OGS3B3dBSdwTEnX2FD4Q-9" value="fullName:String" style="text;align=left;verticalAlign=top;spacingLeft=4;spacingRight=4;overflow=hidden;rotatable=0;points=[[0,0.5],[1,0.5]];portConstraint=eastwest;rounded=0;shadow=0;html=0;" parent="e1jJYObIYilY-aPVNplS-56" vertex="1">
          <mxGeometry y="182" width="210" height="26" as="geometry" />
        </mxCell>
        <mxCell id="OGS3B3dBSdwTEnX2FD4Q-6" value="lastName:String" style="text;align=left;verticalAlign=top;spacingLeft=4;spacingRight=4;overflow=hidden;rotatable=0;points=[[0,0.5],[1,0.5]];portConstraint=eastwest;rounded=0;shadow=0;html=0;" parent="e1jJYObIYilY-aPVNplS-56" vertex="1">
          <mxGeometry y="208" width="210" height="26" as="geometry" />
        </mxCell>
        <mxCell id="OGS3B3dBSdwTEnX2FD4Q-10" value="grade:String" style="text;align=left;verticalAlign=top;spacingLeft=4;spacingRight=4;overflow=hidden;rotatable=0;points=[[0,0.5],[1,0.5]];portConstraint=eastwest;rounded=0;shadow=0;html=0;" parent="e1jJYObIYilY-aPVNplS-56" vertex="1">
          <mxGeometry y="234" width="210" height="26" as="geometry" />
        </mxCell>
        <mxCell id="OGS3B3dBSdwTEnX2FD4Q-12" value="metadatas" style="text;align=left;verticalAlign=top;spacingLeft=4;spacingRight=4;overflow=hidden;rotatable=0;points=[[0,0.5],[1,0.5]];portConstraint=eastwest;rounded=0;shadow=0;html=0;" parent="e1jJYObIYilY-aPVNplS-56" vertex="1">
          <mxGeometry y="260" width="210" height="26" as="geometry" />
        </mxCell>
        <mxCell id="OGS3B3dBSdwTEnX2FD4Q-13" value="nurseryid:Fkey" style="text;align=left;verticalAlign=top;spacingLeft=4;spacingRight=4;overflow=hidden;rotatable=0;points=[[0,0.5],[1,0.5]];portConstraint=eastwest;rounded=0;shadow=0;html=0;" parent="e1jJYObIYilY-aPVNplS-56" vertex="1">
          <mxGeometry y="286" width="210" height="26" as="geometry" />
        </mxCell>
        <mxCell id="OGS3B3dBSdwTEnX2FD4Q-11" value="nurseyName:String" style="text;align=left;verticalAlign=top;spacingLeft=4;spacingRight=4;overflow=hidden;rotatable=0;points=[[0,0.5],[1,0.5]];portConstraint=eastwest;rounded=0;shadow=0;html=0;" parent="e1jJYObIYilY-aPVNplS-56" vertex="1">
          <mxGeometry y="312" width="210" height="26" as="geometry" />
        </mxCell>
        <mxCell id="OGS3B3dBSdwTEnX2FD4Q-14" value="perms:[ ]string" style="text;align=left;verticalAlign=top;spacingLeft=4;spacingRight=4;overflow=hidden;rotatable=0;points=[[0,0.5],[1,0.5]];portConstraint=eastwest;rounded=0;shadow=0;html=0;" parent="e1jJYObIYilY-aPVNplS-56" vertex="1">
          <mxGeometry y="338" width="210" height="26" as="geometry" />
        </mxCell>
        <mxCell id="OGS3B3dBSdwTEnX2FD4Q-15" value="phoneNumber:String" style="text;align=left;verticalAlign=top;spacingLeft=4;spacingRight=4;overflow=hidden;rotatable=0;points=[[0,0.5],[1,0.5]];portConstraint=eastwest;rounded=0;shadow=0;html=0;" parent="e1jJYObIYilY-aPVNplS-56" vertex="1">
          <mxGeometry y="364" width="210" height="26" as="geometry" />
        </mxCell>
        <mxCell id="OGS3B3dBSdwTEnX2FD4Q-16" value="userType:String" style="text;align=left;verticalAlign=top;spacingLeft=4;spacingRight=4;overflow=hidden;rotatable=0;points=[[0,0.5],[1,0.5]];portConstraint=eastwest;rounded=0;shadow=0;html=0;" parent="e1jJYObIYilY-aPVNplS-56" vertex="1">
          <mxGeometry y="390" width="210" height="26" as="geometry" />
        </mxCell>
        <mxCell id="e1jJYObIYilY-aPVNplS-57" value="" style="line;html=1;strokeWidth=1;align=left;verticalAlign=middle;spacingTop=-1;spacingLeft=3;spacingRight=3;rotatable=0;labelPosition=right;points=[];portConstraint=eastwest;" parent="e1jJYObIYilY-aPVNplS-56" vertex="1">
          <mxGeometry y="416" width="210" height="8" as="geometry" />
        </mxCell>
        <mxCell id="OGS3B3dBSdwTEnX2FD4Q-22" value="SearchCour(...string):[ ]cour" style="text;html=1;align=left;verticalAlign=middle;whiteSpace=wrap;rounded=0;spacingLeft=10;" parent="e1jJYObIYilY-aPVNplS-56" vertex="1">
          <mxGeometry y="424" width="210" height="30" as="geometry" />
        </mxCell>
        <mxCell id="46zY262gzCTUuiPBzojq-15" value="user/me(token):user" style="text;html=1;align=left;verticalAlign=middle;whiteSpace=wrap;rounded=0;spacingLeft=10;" parent="e1jJYObIYilY-aPVNplS-56" vertex="1">
          <mxGeometry y="454" width="210" height="30" as="geometry" />
        </mxCell>
        <mxCell id="4abhhRwLtzeeiSmCrCQu-22" value="AddCourfeedBack()" style="text;html=1;align=left;verticalAlign=middle;whiteSpace=wrap;rounded=0;spacingLeft=10;" parent="e1jJYObIYilY-aPVNplS-56" vertex="1">
          <mxGeometry y="484" width="210" height="30" as="geometry" />
        </mxCell>
        <mxCell id="4abhhRwLtzeeiSmCrCQu-24" value="AddProfFeedBack()" style="text;html=1;align=left;verticalAlign=middle;whiteSpace=wrap;rounded=0;fontSize=12;spacingLeft=10;" parent="e1jJYObIYilY-aPVNplS-56" vertex="1">
          <mxGeometry y="514" width="210" height="30" as="geometry" />
        </mxCell>
        <mxCell id="e1jJYObIYilY-aPVNplS-6" value="Student" style="swimlane;fontStyle=2;align=center;verticalAlign=top;childLayout=stackLayout;horizontal=1;startSize=26;horizontalStack=0;resizeParent=1;resizeLast=0;collapsible=1;marginBottom=0;rounded=0;shadow=0;strokeWidth=1;" parent="e1jJYObIYilY-aPVNplS-68" vertex="1">
          <mxGeometry x="356" y="30" width="160" height="86" as="geometry">
            <mxRectangle x="230" y="140" width="160" height="26" as="alternateBounds" />
          </mxGeometry>
        </mxCell>
        <mxCell id="e1jJYObIYilY-aPVNplS-9" value="levelId:Fkey" style="text;align=left;verticalAlign=top;spacingLeft=4;spacingRight=4;overflow=hidden;rotatable=0;points=[[0,0.5],[1,0.5]];portConstraint=eastwest;rounded=0;shadow=0;html=0;" parent="e1jJYObIYilY-aPVNplS-6" vertex="1">
          <mxGeometry y="26" width="160" height="26" as="geometry" />
        </mxCell>
        <mxCell id="e1jJYObIYilY-aPVNplS-10" value="" style="line;html=1;strokeWidth=1;align=left;verticalAlign=middle;spacingTop=-1;spacingLeft=3;spacingRight=3;rotatable=0;labelPosition=right;points=[];portConstraint=eastwest;" parent="e1jJYObIYilY-aPVNplS-6" vertex="1">
          <mxGeometry y="52" width="160" height="8" as="geometry" />
        </mxCell>
        <mxCell id="e1jJYObIYilY-aPVNplS-60" value="" style="endArrow=classic;html=1;rounded=0;entryX=1;entryY=0.5;entryDx=0;entryDy=0;" parent="e1jJYObIYilY-aPVNplS-68" source="e1jJYObIYilY-aPVNplS-6" target="e1jJYObIYilY-aPVNplS-58" edge="1">
          <mxGeometry width="50" height="50" relative="1" as="geometry">
            <mxPoint x="189" y="170" as="sourcePoint" />
            <mxPoint x="240" y="110" as="targetPoint" />
          </mxGeometry>
        </mxCell>
        <mxCell id="zkfFHV4jXpPFQw0GAbJ--0" value="Teacher" style="swimlane;fontStyle=2;align=center;verticalAlign=top;childLayout=stackLayout;horizontal=1;startSize=26;horizontalStack=0;resizeParent=1;resizeLast=0;collapsible=1;marginBottom=0;rounded=0;shadow=0;strokeWidth=1;fillColor=#f8cecc;strokeColor=#b85450;" parent="e1jJYObIYilY-aPVNplS-68" vertex="1">
          <mxGeometry x="340" y="170" width="280" height="304" as="geometry">
            <mxRectangle x="230" y="140" width="160" height="26" as="alternateBounds" />
          </mxGeometry>
        </mxCell>
        <mxCell id="zkfFHV4jXpPFQw0GAbJ--4" value="" style="line;html=1;strokeWidth=1;align=left;verticalAlign=middle;spacingTop=-1;spacingLeft=3;spacingRight=3;rotatable=0;labelPosition=right;points=[];portConstraint=eastwest;" parent="zkfFHV4jXpPFQw0GAbJ--0" vertex="1">
          <mxGeometry y="26" width="280" height="24" as="geometry" />
        </mxCell>
        <mxCell id="OGS3B3dBSdwTEnX2FD4Q-17" value="VerifyProf(perms [ ]string,[ ]string):boolean" style="text;align=left;verticalAlign=top;spacingLeft=4;spacingRight=4;overflow=hidden;rotatable=0;points=[[0,0.5],[1,0.5]];portConstraint=eastwest;rounded=0;shadow=0;html=0;" parent="zkfFHV4jXpPFQw0GAbJ--0" vertex="1">
          <mxGeometry y="50" width="280" height="26" as="geometry" />
        </mxCell>
        <mxCell id="OGS3B3dBSdwTEnX2FD4Q-18" value="VerifyPerm(perms [ ]string,string):boolean" style="text;align=left;verticalAlign=top;spacingLeft=4;spacingRight=4;overflow=hidden;rotatable=0;points=[[0,0.5],[1,0.5]];portConstraint=eastwest;rounded=0;shadow=0;html=0;" parent="zkfFHV4jXpPFQw0GAbJ--0" vertex="1">
          <mxGeometry y="76" width="280" height="26" as="geometry" />
        </mxCell>
        <mxCell id="OGS3B3dBSdwTEnX2FD4Q-19" value="AddCour(cour):error" style="text;html=1;align=left;verticalAlign=middle;whiteSpace=wrap;rounded=0;portConstraintRotation=0;strokeColor=none;glass=0;shadow=0;" parent="zkfFHV4jXpPFQw0GAbJ--0" vertex="1">
          <mxGeometry y="102" width="280" height="30" as="geometry" />
        </mxCell>
        <mxCell id="OGS3B3dBSdwTEnX2FD4Q-20" value="AddChapter(courid string,chapter):error" style="text;html=1;align=left;verticalAlign=middle;whiteSpace=wrap;rounded=0;" parent="zkfFHV4jXpPFQw0GAbJ--0" vertex="1">
          <mxGeometry y="132" width="280" height="30" as="geometry" />
        </mxCell>
        <mxCell id="OGS3B3dBSdwTEnX2FD4Q-21" value="AddDocument(chapterid string,document):error" style="text;html=1;align=left;verticalAlign=middle;whiteSpace=wrap;rounded=0;" parent="zkfFHV4jXpPFQw0GAbJ--0" vertex="1">
          <mxGeometry y="162" width="280" height="30" as="geometry" />
        </mxCell>
        <mxCell id="OGS3B3dBSdwTEnX2FD4Q-78" value="AddEvent(courID string,event):error" style="text;strokeColor=none;fillColor=none;align=left;verticalAlign=top;spacingLeft=4;spacingRight=4;overflow=hidden;rotatable=0;points=[[0,0.5],[1,0.5]];portConstraint=eastwest;whiteSpace=wrap;html=1;" parent="zkfFHV4jXpPFQw0GAbJ--0" vertex="1">
          <mxGeometry y="192" width="280" height="26" as="geometry" />
        </mxCell>
        <mxCell id="e1jJYObIYilY-aPVNplS-59" value="" style="endArrow=classic;html=1;rounded=0;" parent="e1jJYObIYilY-aPVNplS-68" source="zkfFHV4jXpPFQw0GAbJ--0" target="e1jJYObIYilY-aPVNplS-56" edge="1">
          <mxGeometry width="50" height="50" relative="1" as="geometry">
            <mxPoint x="700" y="380" as="sourcePoint" />
            <mxPoint x="240" y="60" as="targetPoint" />
          </mxGeometry>
        </mxCell>
        <mxCell id="46zY262gzCTUuiPBzojq-6" value="" style="html=1;verticalAlign=bottom;endArrow=block;curved=0;rounded=0;entryX=1;entryY=0.25;entryDx=0;entryDy=0;" parent="e1jJYObIYilY-aPVNplS-68" source="46zY262gzCTUuiPBzojq-2" target="4abhhRwLtzeeiSmCrCQu-24" edge="1">
          <mxGeometry width="80" relative="1" as="geometry">
            <mxPoint x="280" y="560" as="sourcePoint" />
            <mxPoint x="360" y="560" as="targetPoint" />
          </mxGeometry>
        </mxCell>
        <mxCell id="46zY262gzCTUuiPBzojq-2" value="Admin" style="swimlane;fontStyle=0;childLayout=stackLayout;horizontal=1;startSize=26;fillColor=none;horizontalStack=0;resizeParent=1;resizeParentMax=0;resizeLast=0;collapsible=1;marginBottom=0;whiteSpace=wrap;html=1;" parent="e1jJYObIYilY-aPVNplS-68" vertex="1">
          <mxGeometry x="356" y="490" width="280" height="86" as="geometry" />
        </mxCell>
        <mxCell id="OGS3B3dBSdwTEnX2FD4Q-26" value="AddEducationLvl(educationLVL):error" style="text;html=1;align=left;verticalAlign=middle;whiteSpace=wrap;rounded=0;" parent="46zY262gzCTUuiPBzojq-2" vertex="1">
          <mxGeometry y="26" width="280" height="30" as="geometry" />
        </mxCell>
        <mxCell id="OGS3B3dBSdwTEnX2FD4Q-27" value="AddMatiere(Matiere):error" style="text;html=1;align=left;verticalAlign=middle;resizable=0;points=[];autosize=1;strokeColor=none;fillColor=none;" parent="46zY262gzCTUuiPBzojq-2" vertex="1">
          <mxGeometry y="56" width="280" height="30" as="geometry" />
        </mxCell>
        <mxCell id="Vz9f1gssuTOusqs6ggo8-84" value="" style="endArrow=none;html=1;rounded=0;entryX=1;entryY=0.25;entryDx=0;entryDy=0;exitX=0;exitY=0.25;exitDx=0;exitDy=0;" edge="1" parent="46zY262gzCTUuiPBzojq-2" source="OGS3B3dBSdwTEnX2FD4Q-26" target="OGS3B3dBSdwTEnX2FD4Q-26">
          <mxGeometry width="50" height="50" relative="1" as="geometry">
            <mxPoint x="94" y="140" as="sourcePoint" />
            <mxPoint x="144" y="90" as="targetPoint" />
          </mxGeometry>
        </mxCell>
        <mxCell id="Vz9f1gssuTOusqs6ggo8-88" value="1" style="text;html=1;align=center;verticalAlign=middle;whiteSpace=wrap;rounded=0;movable=0;resizable=0;rotatable=0;deletable=0;editable=0;locked=1;connectable=0;" vertex="1" parent="e1jJYObIYilY-aPVNplS-68">
          <mxGeometry x="610" y="290" width="60" height="30" as="geometry" />
        </mxCell>
        <mxCell id="OGS3B3dBSdwTEnX2FD4Q-23" value="" style="group" parent="WIyWlLk6GJQsqaUBKTNV-1" vertex="1" connectable="0">
          <mxGeometry x="393" width="1120" height="1150" as="geometry" />
        </mxCell>
        <mxCell id="e1jJYObIYilY-aPVNplS-69" value="Service Catalogue" style="swimlane;whiteSpace=wrap;html=1;" parent="OGS3B3dBSdwTEnX2FD4Q-23" vertex="1">
          <mxGeometry x="-10.666666666666666" width="1098.6666666666667" height="1150" as="geometry" />
        </mxCell>
        <mxCell id="e1jJYObIYilY-aPVNplS-12" value="EducationLVL" style="swimlane;fontStyle=2;align=center;verticalAlign=top;childLayout=stackLayout;horizontal=1;startSize=26;horizontalStack=0;resizeParent=1;resizeLast=0;collapsible=1;marginBottom=0;rounded=0;shadow=0;strokeWidth=1;" parent="e1jJYObIYilY-aPVNplS-69" vertex="1">
          <mxGeometry x="32" y="884.3615415224799" width="266.6666666666667" height="206.82484794640771" as="geometry">
            <mxRectangle x="230" y="140" width="160" height="26" as="alternateBounds" />
          </mxGeometry>
        </mxCell>
        <mxCell id="e1jJYObIYilY-aPVNplS-13" value="ID:PK" style="text;align=left;verticalAlign=top;spacingLeft=4;spacingRight=4;overflow=hidden;rotatable=0;points=[[0,0.5],[1,0.5]];portConstraint=eastwest;" parent="e1jJYObIYilY-aPVNplS-12" vertex="1">
          <mxGeometry y="26" width="266.6666666666667" height="29.874700258925554" as="geometry" />
        </mxCell>
        <mxCell id="e1jJYObIYilY-aPVNplS-14" value="Name:String" style="text;align=left;verticalAlign=top;spacingLeft=4;spacingRight=4;overflow=hidden;rotatable=0;points=[[0,0.5],[1,0.5]];portConstraint=eastwest;rounded=0;shadow=0;html=0;" parent="e1jJYObIYilY-aPVNplS-12" vertex="1">
          <mxGeometry y="55.87470025892556" width="266.6666666666667" height="29.874700258925554" as="geometry" />
        </mxCell>
        <mxCell id="OGS3B3dBSdwTEnX2FD4Q-24" value="CategorieScolaire:categorieScolaire" style="text;html=1;align=left;verticalAlign=middle;whiteSpace=wrap;rounded=0;" parent="e1jJYObIYilY-aPVNplS-12" vertex="1">
          <mxGeometry y="85.74940051785111" width="266.6666666666667" height="34.47080799106794" as="geometry" />
        </mxCell>
        <mxCell id="OGS3B3dBSdwTEnX2FD4Q-25" value="*Section:String" style="text;html=1;align=left;verticalAlign=middle;whiteSpace=wrap;rounded=0;" parent="e1jJYObIYilY-aPVNplS-12" vertex="1">
          <mxGeometry y="120.22020850891906" width="266.6666666666667" height="34.47080799106794" as="geometry" />
        </mxCell>
        <mxCell id="e1jJYObIYilY-aPVNplS-16" value="" style="line;html=1;strokeWidth=1;align=left;verticalAlign=middle;spacingTop=-1;spacingLeft=3;spacingRight=3;rotatable=0;labelPosition=right;points=[];portConstraint=eastwest;" parent="e1jJYObIYilY-aPVNplS-12" vertex="1">
          <mxGeometry y="154.691016499987" width="266.6666666666667" height="9.192215464284786" as="geometry" />
        </mxCell>
        <mxCell id="e1jJYObIYilY-aPVNplS-0" value="Course" style="swimlane;fontStyle=2;align=center;verticalAlign=top;childLayout=stackLayout;horizontal=1;startSize=26;horizontalStack=0;resizeParent=1;resizeLast=0;collapsible=1;marginBottom=0;rounded=0;shadow=0;strokeWidth=1;fillColor=#dae8fc;strokeColor=#6c8ebf;" parent="e1jJYObIYilY-aPVNplS-69" vertex="1">
          <mxGeometry x="106.66666666666667" y="117.91445221046877" width="224" height="405.9875042582027" as="geometry">
            <mxRectangle x="230" y="140" width="160" height="26" as="alternateBounds" />
          </mxGeometry>
        </mxCell>
        <mxCell id="e1jJYObIYilY-aPVNplS-1" value="ID:Pkey" style="text;align=left;verticalAlign=top;spacingLeft=4;spacingRight=4;overflow=hidden;rotatable=0;points=[[0,0.5],[1,0.5]];portConstraint=eastwest;" parent="e1jJYObIYilY-aPVNplS-0" vertex="1">
          <mxGeometry y="26" width="224" height="29.874700258925557" as="geometry" />
        </mxCell>
        <mxCell id="e1jJYObIYilY-aPVNplS-2" value="Title:String" style="text;align=left;verticalAlign=top;spacingLeft=4;spacingRight=4;overflow=hidden;rotatable=0;points=[[0,0.5],[1,0.5]];portConstraint=eastwest;rounded=0;shadow=0;html=0;" parent="e1jJYObIYilY-aPVNplS-0" vertex="1">
          <mxGeometry y="55.87470025892556" width="224" height="29.874700258925557" as="geometry" />
        </mxCell>
        <mxCell id="e1jJYObIYilY-aPVNplS-70" value="Description:string" style="text;align=left;verticalAlign=top;spacingLeft=4;spacingRight=4;overflow=hidden;rotatable=0;points=[[0,0.5],[1,0.5]];portConstraint=eastwest;rounded=0;shadow=0;html=0;" parent="e1jJYObIYilY-aPVNplS-0" vertex="1">
          <mxGeometry y="85.74940051785111" width="224" height="36.76886185713915" as="geometry" />
        </mxCell>
        <mxCell id="e1jJYObIYilY-aPVNplS-3" value="Prof:Prof&#xa;" style="text;align=left;verticalAlign=top;spacingLeft=4;spacingRight=4;overflow=hidden;rotatable=0;points=[[0,0.5],[1,0.5]];portConstraint=eastwest;rounded=0;shadow=0;html=0;" parent="e1jJYObIYilY-aPVNplS-0" vertex="1">
          <mxGeometry y="122.51826237499026" width="224" height="29.874700258925557" as="geometry" />
        </mxCell>
        <mxCell id="e1jJYObIYilY-aPVNplS-53" value="BackgroundURL:String" style="text;align=left;verticalAlign=top;spacingLeft=4;spacingRight=4;overflow=hidden;rotatable=0;points=[[0,0.5],[1,0.5]];portConstraint=eastwest;rounded=0;shadow=0;html=0;" parent="e1jJYObIYilY-aPVNplS-0" vertex="1">
          <mxGeometry y="152.39296263391583" width="224" height="29.874700258925557" as="geometry" />
        </mxCell>
        <mxCell id="OGS3B3dBSdwTEnX2FD4Q-29" value="&amp;nbsp;Matiere:matiere" style="text;html=1;align=left;verticalAlign=middle;whiteSpace=wrap;rounded=0;" parent="e1jJYObIYilY-aPVNplS-0" vertex="1">
          <mxGeometry y="182.26766289284137" width="224" height="34.47080799106795" as="geometry" />
        </mxCell>
        <mxCell id="OGS3B3dBSdwTEnX2FD4Q-30" value="&amp;nbsp;CreatedAt:Date" style="text;html=1;align=left;verticalAlign=middle;whiteSpace=wrap;rounded=0;" parent="e1jJYObIYilY-aPVNplS-0" vertex="1">
          <mxGeometry y="216.73847088390932" width="224" height="34.47080799106795" as="geometry" />
        </mxCell>
        <mxCell id="OGS3B3dBSdwTEnX2FD4Q-31" value="&amp;nbsp;UpdatedAt:Date" style="text;html=1;align=left;verticalAlign=middle;whiteSpace=wrap;rounded=0;" parent="e1jJYObIYilY-aPVNplS-0" vertex="1">
          <mxGeometry y="251.20927887497726" width="224" height="34.47080799106795" as="geometry" />
        </mxCell>
        <mxCell id="Vz9f1gssuTOusqs6ggo8-67" value="&amp;nbsp;IsLive:BOOLEAN" style="text;html=1;align=left;verticalAlign=middle;whiteSpace=wrap;rounded=0;" vertex="1" parent="e1jJYObIYilY-aPVNplS-0">
          <mxGeometry y="285.6800868660452" width="224" height="34.47080799106795" as="geometry" />
        </mxCell>
        <mxCell id="e1jJYObIYilY-aPVNplS-4" value="" style="line;html=1;strokeWidth=1;align=left;verticalAlign=middle;spacingTop=-1;spacingLeft=3;spacingRight=3;rotatable=0;labelPosition=right;points=[];portConstraint=eastwest;" parent="e1jJYObIYilY-aPVNplS-0" vertex="1">
          <mxGeometry y="320.15089485711314" width="224" height="9.192215464284788" as="geometry" />
        </mxCell>
        <mxCell id="Vz9f1gssuTOusqs6ggo8-4" value="StartStream():void" style="text;strokeColor=none;fillColor=none;align=left;verticalAlign=top;spacingLeft=4;spacingRight=4;overflow=hidden;rotatable=0;points=[[0,0.5],[1,0.5]];portConstraint=eastwest;whiteSpace=wrap;html=1;" vertex="1" parent="e1jJYObIYilY-aPVNplS-0">
          <mxGeometry y="329.34311032139794" width="224" height="25.548131312268232" as="geometry" />
        </mxCell>
        <mxCell id="Vz9f1gssuTOusqs6ggo8-5" value="EndStream():void" style="text;strokeColor=none;fillColor=none;align=left;verticalAlign=top;spacingLeft=4;spacingRight=4;overflow=hidden;rotatable=0;points=[[0,0.5],[1,0.5]];portConstraint=eastwest;whiteSpace=wrap;html=1;" vertex="1" parent="e1jJYObIYilY-aPVNplS-0">
          <mxGeometry y="354.8912416336662" width="224" height="25.548131312268232" as="geometry" />
        </mxCell>
        <mxCell id="Vz9f1gssuTOusqs6ggo8-17" value="joinStream(IDstudent:int): void" style="text;strokeColor=none;fillColor=none;align=left;verticalAlign=top;spacingLeft=4;spacingRight=4;overflow=hidden;rotatable=0;points=[[0,0.5],[1,0.5]];portConstraint=eastwest;whiteSpace=wrap;html=1;" vertex="1" parent="e1jJYObIYilY-aPVNplS-0">
          <mxGeometry y="380.43937294593445" width="224" height="25.548131312268232" as="geometry" />
        </mxCell>
        <mxCell id="e1jJYObIYilY-aPVNplS-30" value="Chapter" style="swimlane;fontStyle=2;align=center;verticalAlign=top;childLayout=stackLayout;horizontal=1;startSize=26;horizontalStack=0;resizeParent=1;resizeLast=0;collapsible=1;marginBottom=0;rounded=0;shadow=0;strokeWidth=1;" parent="e1jJYObIYilY-aPVNplS-69" vertex="1">
          <mxGeometry x="394.6666666666667" y="561.8741702544075" width="170.66666666666666" height="158.56571675891254" as="geometry">
            <mxRectangle x="230" y="140" width="160" height="26" as="alternateBounds" />
          </mxGeometry>
        </mxCell>
        <mxCell id="e1jJYObIYilY-aPVNplS-31" value="ID:PK" style="text;align=left;verticalAlign=top;spacingLeft=4;spacingRight=4;overflow=hidden;rotatable=0;points=[[0,0.5],[1,0.5]];portConstraint=eastwest;" parent="e1jJYObIYilY-aPVNplS-30" vertex="1">
          <mxGeometry y="26" width="170.66666666666666" height="29.874700258925554" as="geometry" />
        </mxCell>
        <mxCell id="e1jJYObIYilY-aPVNplS-32" value="title:String" style="text;align=left;verticalAlign=top;spacingLeft=4;spacingRight=4;overflow=hidden;rotatable=0;points=[[0,0.5],[1,0.5]];portConstraint=eastwest;rounded=0;shadow=0;html=0;" parent="e1jJYObIYilY-aPVNplS-30" vertex="1">
          <mxGeometry y="55.87470025892556" width="170.66666666666666" height="29.874700258925554" as="geometry" />
        </mxCell>
        <mxCell id="e1jJYObIYilY-aPVNplS-33" value="description:String" style="text;align=left;verticalAlign=top;spacingLeft=4;spacingRight=4;overflow=hidden;rotatable=0;points=[[0,0.5],[1,0.5]];portConstraint=eastwest;rounded=0;shadow=0;html=0;" parent="e1jJYObIYilY-aPVNplS-30" vertex="1">
          <mxGeometry y="85.74940051785111" width="170.66666666666666" height="29.874700258925554" as="geometry" />
        </mxCell>
        <mxCell id="e1jJYObIYilY-aPVNplS-51" value="courseId:Fkey" style="text;align=left;verticalAlign=top;spacingLeft=4;spacingRight=4;overflow=hidden;rotatable=0;points=[[0,0.5],[1,0.5]];portConstraint=eastwest;rounded=0;shadow=0;html=0;" parent="e1jJYObIYilY-aPVNplS-30" vertex="1">
          <mxGeometry y="115.62410077677667" width="170.66666666666666" height="29.874700258925554" as="geometry" />
        </mxCell>
        <mxCell id="e1jJYObIYilY-aPVNplS-34" value="" style="line;html=1;strokeWidth=1;align=left;verticalAlign=middle;spacingTop=-1;spacingLeft=3;spacingRight=3;rotatable=0;labelPosition=right;points=[];portConstraint=eastwest;" parent="e1jJYObIYilY-aPVNplS-30" vertex="1">
          <mxGeometry y="145.49880103570223" width="170.66666666666666" height="9.192215464284784" as="geometry" />
        </mxCell>
        <mxCell id="OGS3B3dBSdwTEnX2FD4Q-34" value="Document" style="swimlane;fontStyle=1;align=center;verticalAlign=top;childLayout=stackLayout;horizontal=1;startSize=26;horizontalStack=0;resizeParent=1;resizeParentMax=0;resizeLast=0;collapsible=1;marginBottom=0;whiteSpace=wrap;html=1;" parent="e1jJYObIYilY-aPVNplS-69" vertex="1">
          <mxGeometry x="800" y="449.26953081691886" width="170.66666666666666" height="214.44041701783812" as="geometry" />
        </mxCell>
        <mxCell id="OGS3B3dBSdwTEnX2FD4Q-35" value="ID:PK" style="text;strokeColor=none;fillColor=none;align=left;verticalAlign=top;spacingLeft=4;spacingRight=4;overflow=hidden;rotatable=0;points=[[0,0.5],[1,0.5]];portConstraint=eastwest;whiteSpace=wrap;html=1;" parent="OGS3B3dBSdwTEnX2FD4Q-34" vertex="1">
          <mxGeometry y="26" width="170.66666666666666" height="29.874700258925557" as="geometry" />
        </mxCell>
        <mxCell id="OGS3B3dBSdwTEnX2FD4Q-38" value="Title:string" style="text;strokeColor=none;fillColor=none;align=left;verticalAlign=top;spacingLeft=4;spacingRight=4;overflow=hidden;rotatable=0;points=[[0,0.5],[1,0.5]];portConstraint=eastwest;whiteSpace=wrap;html=1;" parent="OGS3B3dBSdwTEnX2FD4Q-34" vertex="1">
          <mxGeometry y="55.87470025892556" width="170.66666666666666" height="29.874700258925557" as="geometry" />
        </mxCell>
        <mxCell id="OGS3B3dBSdwTEnX2FD4Q-65" value="MakerID:Fkey&lt;div&gt;&lt;br&gt;&lt;/div&gt;" style="text;strokeColor=none;fillColor=none;align=left;verticalAlign=top;spacingLeft=4;spacingRight=4;overflow=hidden;rotatable=0;points=[[0,0.5],[1,0.5]];portConstraint=eastwest;whiteSpace=wrap;html=1;" parent="OGS3B3dBSdwTEnX2FD4Q-34" vertex="1">
          <mxGeometry y="85.74940051785111" width="170.66666666666666" height="29.874700258925557" as="geometry" />
        </mxCell>
        <mxCell id="OGS3B3dBSdwTEnX2FD4Q-39" value="ChapterID:Fkey" style="text;strokeColor=none;fillColor=none;align=left;verticalAlign=top;spacingLeft=4;spacingRight=4;overflow=hidden;rotatable=0;points=[[0,0.5],[1,0.5]];portConstraint=eastwest;whiteSpace=wrap;html=1;" parent="OGS3B3dBSdwTEnX2FD4Q-34" vertex="1">
          <mxGeometry y="115.62410077677667" width="170.66666666666666" height="29.874700258925557" as="geometry" />
        </mxCell>
        <mxCell id="OGS3B3dBSdwTEnX2FD4Q-66" value="CreatedAt:Date" style="text;strokeColor=none;fillColor=none;align=left;verticalAlign=top;spacingLeft=4;spacingRight=4;overflow=hidden;rotatable=0;points=[[0,0.5],[1,0.5]];portConstraint=eastwest;whiteSpace=wrap;html=1;" parent="OGS3B3dBSdwTEnX2FD4Q-34" vertex="1">
          <mxGeometry y="145.49880103570223" width="170.66666666666666" height="29.874700258925557" as="geometry" />
        </mxCell>
        <mxCell id="OGS3B3dBSdwTEnX2FD4Q-36" value="" style="line;strokeWidth=1;fillColor=none;align=left;verticalAlign=middle;spacingTop=-1;spacingLeft=3;spacingRight=3;rotatable=0;labelPosition=right;points=[];portConstraint=eastwest;strokeColor=inherit;" parent="OGS3B3dBSdwTEnX2FD4Q-34" vertex="1">
          <mxGeometry y="175.37350129462777" width="170.66666666666666" height="9.192215464284788" as="geometry" />
        </mxCell>
        <mxCell id="OGS3B3dBSdwTEnX2FD4Q-37" value="+ method(type): type" style="text;strokeColor=none;fillColor=none;align=left;verticalAlign=top;spacingLeft=4;spacingRight=4;overflow=hidden;rotatable=0;points=[[0,0.5],[1,0.5]];portConstraint=eastwest;whiteSpace=wrap;html=1;" parent="OGS3B3dBSdwTEnX2FD4Q-34" vertex="1">
          <mxGeometry y="184.56571675891257" width="170.66666666666666" height="29.874700258925557" as="geometry" />
        </mxCell>
        <mxCell id="OGS3B3dBSdwTEnX2FD4Q-62" value="" style="group;align=right;verticalAlign=bottom;fontFamily=Helvetica;fontSize=11;fontColor=default;labelBackgroundColor=default;resizable=0;fillColor=none;gradientColor=none;" parent="e1jJYObIYilY-aPVNplS-69" vertex="1" connectable="0">
          <mxGeometry x="661.3333333333334" y="563.0231971874431" width="80" height="30" as="geometry" />
        </mxCell>
        <mxCell id="OGS3B3dBSdwTEnX2FD4Q-64" value="" style="group" parent="OGS3B3dBSdwTEnX2FD4Q-62" vertex="1" connectable="0">
          <mxGeometry width="80" height="30" as="geometry" />
        </mxCell>
        <mxCell id="OGS3B3dBSdwTEnX2FD4Q-60" value="constitué &amp;gt;" style="text;html=1;align=center;verticalAlign=middle;whiteSpace=wrap;rounded=0;fontFamily=Helvetica;fontSize=11;fontColor=default;labelBackgroundColor=default;resizable=0;" parent="OGS3B3dBSdwTEnX2FD4Q-64" vertex="1">
          <mxGeometry width="80" height="30" as="geometry" />
        </mxCell>
        <mxCell id="OGS3B3dBSdwTEnX2FD4Q-41" value="" style="endArrow=none;html=1;edgeStyle=orthogonalEdgeStyle;rounded=0;entryX=0.001;entryY=0.665;entryDx=0;entryDy=0;entryPerimeter=0;align=right;verticalAlign=bottom;fontFamily=Helvetica;fontSize=11;fontColor=default;labelBackgroundColor=default;resizable=0;fillColor=none;gradientColor=none;" parent="OGS3B3dBSdwTEnX2FD4Q-64" source="e1jJYObIYilY-aPVNplS-31" target="OGS3B3dBSdwTEnX2FD4Q-39" edge="1">
          <mxGeometry relative="1" as="geometry">
            <mxPoint x="-90" y="-9" as="sourcePoint" />
            <mxPoint x="111" y="18.5" as="targetPoint" />
          </mxGeometry>
        </mxCell>
        <mxCell id="OGS3B3dBSdwTEnX2FD4Q-42" value="1" style="edgeLabel;resizable=0;html=1;align=right;verticalAlign=bottom;fontFamily=Helvetica;fontSize=11;fontColor=default;labelBackgroundColor=default;fillColor=none;gradientColor=none;" parent="OGS3B3dBSdwTEnX2FD4Q-41" connectable="0" vertex="1">
          <mxGeometry x="-1" relative="1" as="geometry">
            <mxPoint x="10" y="-4" as="offset" />
          </mxGeometry>
        </mxCell>
        <mxCell id="OGS3B3dBSdwTEnX2FD4Q-43" value="0..*" style="edgeLabel;resizable=0;html=1;align=right;verticalAlign=bottom;fontFamily=Helvetica;fontSize=11;fontColor=default;labelBackgroundColor=default;fillColor=none;gradientColor=none;" parent="OGS3B3dBSdwTEnX2FD4Q-41" connectable="0" vertex="1">
          <mxGeometry x="1" relative="1" as="geometry">
            <mxPoint x="-10" as="offset" />
          </mxGeometry>
        </mxCell>
        <mxCell id="e1jJYObIYilY-aPVNplS-24" value="Matiere" style="swimlane;fontStyle=2;align=center;verticalAlign=top;childLayout=stackLayout;horizontal=1;startSize=26;horizontalStack=0;resizeParent=1;resizeLast=0;collapsible=1;marginBottom=0;rounded=0;shadow=0;strokeWidth=1;" parent="e1jJYObIYilY-aPVNplS-69" vertex="1">
          <mxGeometry x="149.33333333333334" y="619.0477716945787" width="170.66666666666666" height="163.16182449105497" as="geometry">
            <mxRectangle x="230" y="140" width="160" height="26" as="alternateBounds" />
          </mxGeometry>
        </mxCell>
        <mxCell id="e1jJYObIYilY-aPVNplS-25" value="ID:PK" style="text;align=left;verticalAlign=top;spacingLeft=4;spacingRight=4;overflow=hidden;rotatable=0;points=[[0,0.5],[1,0.5]];portConstraint=eastwest;" parent="e1jJYObIYilY-aPVNplS-24" vertex="1">
          <mxGeometry y="26" width="170.66666666666666" height="29.874700258925557" as="geometry" />
        </mxCell>
        <mxCell id="e1jJYObIYilY-aPVNplS-26" value="Name:String" style="text;align=left;verticalAlign=top;spacingLeft=4;spacingRight=4;overflow=hidden;rotatable=0;points=[[0,0.5],[1,0.5]];portConstraint=eastwest;rounded=0;shadow=0;html=0;" parent="e1jJYObIYilY-aPVNplS-24" vertex="1">
          <mxGeometry y="55.87470025892556" width="170.66666666666666" height="29.874700258925557" as="geometry" />
        </mxCell>
        <mxCell id="e1jJYObIYilY-aPVNplS-27" value="EducationLVL:educationlvl" style="text;align=left;verticalAlign=top;spacingLeft=4;spacingRight=4;overflow=hidden;rotatable=0;points=[[0,0.5],[1,0.5]];portConstraint=eastwest;rounded=0;shadow=0;html=0;" parent="e1jJYObIYilY-aPVNplS-24" vertex="1">
          <mxGeometry y="85.74940051785111" width="170.66666666666666" height="29.874700258925557" as="geometry" />
        </mxCell>
        <mxCell id="46zY262gzCTUuiPBzojq-1" value="" style="endArrow=diamondThin;endFill=1;endSize=24;html=1;rounded=0;exitX=0;exitY=0.5;exitDx=0;exitDy=0;" parent="e1jJYObIYilY-aPVNplS-69" source="OGS3B3dBSdwTEnX2FD4Q-71" edge="1">
          <mxGeometry width="160" relative="1" as="geometry">
            <mxPoint x="181.33333333333334" y="460.7598001472749" as="sourcePoint" />
            <mxPoint x="330.6666666666667" y="395.01291099715496" as="targetPoint" />
          </mxGeometry>
        </mxCell>
        <mxCell id="46zY262gzCTUuiPBzojq-7" value="" style="endArrow=none;html=1;edgeStyle=orthogonalEdgeStyle;rounded=0;" parent="e1jJYObIYilY-aPVNplS-69" source="e1jJYObIYilY-aPVNplS-12" target="e1jJYObIYilY-aPVNplS-27" edge="1">
          <mxGeometry relative="1" as="geometry">
            <mxPoint x="-32" y="490.9478713879374" as="sourcePoint" />
            <mxPoint x="138.66666666666666" y="490.9478713879374" as="targetPoint" />
          </mxGeometry>
        </mxCell>
        <mxCell id="46zY262gzCTUuiPBzojq-8" value="parent" style="edgeLabel;resizable=0;html=1;align=left;verticalAlign=bottom;" parent="46zY262gzCTUuiPBzojq-7" connectable="0" vertex="1">
          <mxGeometry x="-1" relative="1" as="geometry" />
        </mxCell>
        <mxCell id="46zY262gzCTUuiPBzojq-9" value="child" style="edgeLabel;resizable=0;html=1;align=right;verticalAlign=bottom;" parent="46zY262gzCTUuiPBzojq-7" connectable="0" vertex="1">
          <mxGeometry x="1" relative="1" as="geometry" />
        </mxCell>
        <mxCell id="46zY262gzCTUuiPBzojq-12" value="" style="endArrow=none;html=1;edgeStyle=orthogonalEdgeStyle;rounded=0;entryX=0;entryY=0.5;entryDx=0;entryDy=0;" parent="e1jJYObIYilY-aPVNplS-69" source="e1jJYObIYilY-aPVNplS-24" target="OGS3B3dBSdwTEnX2FD4Q-29" edge="1">
          <mxGeometry relative="1" as="geometry">
            <mxPoint x="-42.666666666666664" y="386.4908774756103" as="sourcePoint" />
            <mxPoint x="64" y="323.816681128214" as="targetPoint" />
            <Array as="points">
              <mxPoint x="234.66666666666666" y="609.2246697540886" />
              <mxPoint x="96" y="609.2246697540886" />
              <mxPoint x="96" y="337.03880923492324" />
            </Array>
          </mxGeometry>
        </mxCell>
        <mxCell id="46zY262gzCTUuiPBzojq-13" value="parent" style="edgeLabel;resizable=0;html=1;align=left;verticalAlign=bottom;" parent="46zY262gzCTUuiPBzojq-12" connectable="0" vertex="1">
          <mxGeometry x="-1" relative="1" as="geometry" />
        </mxCell>
        <mxCell id="46zY262gzCTUuiPBzojq-14" value="child" style="edgeLabel;resizable=0;html=1;align=right;verticalAlign=bottom;" parent="46zY262gzCTUuiPBzojq-12" connectable="0" vertex="1">
          <mxGeometry x="1" relative="1" as="geometry" />
        </mxCell>
        <mxCell id="4abhhRwLtzeeiSmCrCQu-0" value="FeedBackCour" style="swimlane;whiteSpace=wrap;html=1;movable=1;resizable=1;rotatable=1;deletable=1;editable=1;locked=0;connectable=1;" parent="e1jJYObIYilY-aPVNplS-69" vertex="1">
          <mxGeometry x="736" y="186.69586703491382" width="256" height="212.29640477038674" as="geometry" />
        </mxCell>
        <mxCell id="4abhhRwLtzeeiSmCrCQu-2" value="&amp;nbsp;ID:Pkey" style="text;html=1;align=left;verticalAlign=middle;whiteSpace=wrap;rounded=0;movable=0;resizable=0;rotatable=0;deletable=0;editable=0;locked=1;connectable=0;" parent="4abhhRwLtzeeiSmCrCQu-0" vertex="1">
          <mxGeometry y="22.58" width="240" height="30" as="geometry" />
        </mxCell>
        <mxCell id="4abhhRwLtzeeiSmCrCQu-3" value="&amp;nbsp;IDmaker:Fkey" style="text;html=1;align=left;verticalAlign=middle;whiteSpace=wrap;rounded=0;movable=0;resizable=0;rotatable=0;deletable=0;editable=0;locked=1;connectable=0;" parent="4abhhRwLtzeeiSmCrCQu-0" vertex="1">
          <mxGeometry y="52.58" width="240" height="30" as="geometry" />
        </mxCell>
        <mxCell id="4abhhRwLtzeeiSmCrCQu-4" value="&amp;nbsp;Contenue:string" style="text;html=1;align=left;verticalAlign=middle;whiteSpace=wrap;rounded=0;movable=0;resizable=0;rotatable=0;deletable=0;editable=0;locked=1;connectable=0;" parent="4abhhRwLtzeeiSmCrCQu-0" vertex="1">
          <mxGeometry y="82.58" width="240" height="30" as="geometry" />
        </mxCell>
        <mxCell id="4abhhRwLtzeeiSmCrCQu-11" value="" style="group;movable=0;resizable=0;rotatable=0;deletable=0;editable=0;locked=1;connectable=0;" parent="4abhhRwLtzeeiSmCrCQu-0" vertex="1" connectable="0">
          <mxGeometry y="140" width="240" height="80" as="geometry" />
        </mxCell>
        <mxCell id="4abhhRwLtzeeiSmCrCQu-5" value="&amp;nbsp;Date:date" style="text;html=1;align=left;verticalAlign=middle;whiteSpace=wrap;rounded=0;movable=0;resizable=0;rotatable=0;deletable=0;editable=0;locked=1;connectable=0;" parent="4abhhRwLtzeeiSmCrCQu-11" vertex="1">
          <mxGeometry width="240" height="36.55999999999999" as="geometry" />
        </mxCell>
        <mxCell id="4abhhRwLtzeeiSmCrCQu-7" value="" style="endArrow=none;html=1;rounded=0;entryX=1;entryY=1;entryDx=0;entryDy=0;exitX=0;exitY=1;exitDx=0;exitDy=0;movable=0;resizable=0;rotatable=0;deletable=0;editable=0;locked=1;connectable=0;" parent="4abhhRwLtzeeiSmCrCQu-11" source="4abhhRwLtzeeiSmCrCQu-5" target="4abhhRwLtzeeiSmCrCQu-5" edge="1">
          <mxGeometry width="50" height="50" relative="1" as="geometry">
            <mxPoint x="-360" y="253.33333333333334" as="sourcePoint" />
            <mxPoint x="-310" y="186.6666666666666" as="targetPoint" />
          </mxGeometry>
        </mxCell>
        <mxCell id="4abhhRwLtzeeiSmCrCQu-8" value="&amp;nbsp;DeleteMe()" style="text;html=1;align=left;verticalAlign=middle;whiteSpace=wrap;rounded=0;movable=0;resizable=0;rotatable=0;deletable=0;editable=0;locked=1;connectable=0;" parent="4abhhRwLtzeeiSmCrCQu-11" vertex="1">
          <mxGeometry y="40.00000000000001" width="240" height="39.999999999999986" as="geometry" />
        </mxCell>
        <mxCell id="4abhhRwLtzeeiSmCrCQu-9" value="&amp;nbsp;IDCour:Fkey" style="text;html=1;align=left;verticalAlign=middle;whiteSpace=wrap;rounded=0;movable=0;resizable=0;rotatable=0;deletable=0;editable=0;locked=1;connectable=0;" parent="4abhhRwLtzeeiSmCrCQu-0" vertex="1">
          <mxGeometry y="112.58" width="240" height="30" as="geometry" />
        </mxCell>
        <mxCell id="4abhhRwLtzeeiSmCrCQu-13" value="FeedBackProf" style="swimlane;whiteSpace=wrap;html=1;movable=1;resizable=1;rotatable=1;deletable=1;editable=1;locked=0;connectable=1;" parent="e1jJYObIYilY-aPVNplS-69" vertex="1">
          <mxGeometry x="405.3333333333333" y="35.37433566314063" width="256" height="216.88398243245555" as="geometry" />
        </mxCell>
        <mxCell id="4abhhRwLtzeeiSmCrCQu-14" value="&amp;nbsp;ID:Pkey" style="text;html=1;align=left;verticalAlign=middle;whiteSpace=wrap;rounded=0;movable=0;resizable=0;rotatable=0;deletable=0;editable=0;locked=1;connectable=0;" parent="4abhhRwLtzeeiSmCrCQu-13" vertex="1">
          <mxGeometry y="22.58" width="240" height="30" as="geometry" />
        </mxCell>
        <mxCell id="4abhhRwLtzeeiSmCrCQu-15" value="&amp;nbsp;IDmaker:Fkey" style="text;html=1;align=left;verticalAlign=middle;whiteSpace=wrap;rounded=0;movable=0;resizable=0;rotatable=0;deletable=0;editable=0;locked=1;connectable=0;" parent="4abhhRwLtzeeiSmCrCQu-13" vertex="1">
          <mxGeometry y="52.58" width="240" height="30" as="geometry" />
        </mxCell>
        <mxCell id="4abhhRwLtzeeiSmCrCQu-16" value="&amp;nbsp;Contenue:string" style="text;html=1;align=left;verticalAlign=middle;whiteSpace=wrap;rounded=0;movable=0;resizable=0;rotatable=0;deletable=0;editable=0;locked=1;connectable=0;" parent="4abhhRwLtzeeiSmCrCQu-13" vertex="1">
          <mxGeometry y="82.58" width="240" height="30" as="geometry" />
        </mxCell>
        <mxCell id="4abhhRwLtzeeiSmCrCQu-17" value="" style="group;movable=0;resizable=0;rotatable=0;deletable=0;editable=0;locked=1;connectable=0;" parent="4abhhRwLtzeeiSmCrCQu-13" vertex="1" connectable="0">
          <mxGeometry y="140" width="240" height="80" as="geometry" />
        </mxCell>
        <mxCell id="4abhhRwLtzeeiSmCrCQu-18" value="&amp;nbsp;Date:date" style="text;html=1;align=left;verticalAlign=middle;whiteSpace=wrap;rounded=0;movable=0;resizable=0;rotatable=0;deletable=0;editable=0;locked=1;connectable=0;" parent="4abhhRwLtzeeiSmCrCQu-17" vertex="1">
          <mxGeometry width="240" height="36.55999999999999" as="geometry" />
        </mxCell>
        <mxCell id="4abhhRwLtzeeiSmCrCQu-19" value="" style="endArrow=none;html=1;rounded=0;entryX=1;entryY=1;entryDx=0;entryDy=0;exitX=0;exitY=1;exitDx=0;exitDy=0;movable=0;resizable=0;rotatable=0;deletable=0;editable=0;locked=1;connectable=0;" parent="4abhhRwLtzeeiSmCrCQu-17" source="4abhhRwLtzeeiSmCrCQu-18" target="4abhhRwLtzeeiSmCrCQu-18" edge="1">
          <mxGeometry width="50" height="50" relative="1" as="geometry">
            <mxPoint x="-360" y="253.33333333333334" as="sourcePoint" />
            <mxPoint x="-310" y="186.6666666666666" as="targetPoint" />
          </mxGeometry>
        </mxCell>
        <mxCell id="4abhhRwLtzeeiSmCrCQu-20" value="&amp;nbsp;DeleteMe()" style="text;html=1;align=left;verticalAlign=middle;whiteSpace=wrap;rounded=0;movable=0;resizable=0;rotatable=0;deletable=0;editable=0;locked=1;connectable=0;" parent="4abhhRwLtzeeiSmCrCQu-17" vertex="1">
          <mxGeometry y="40.00000000000001" width="240" height="39.999999999999986" as="geometry" />
        </mxCell>
        <mxCell id="4abhhRwLtzeeiSmCrCQu-21" value="&amp;nbsp;IDProf:Fkey" style="text;html=1;align=left;verticalAlign=middle;whiteSpace=wrap;rounded=0;movable=1;resizable=1;rotatable=1;deletable=1;editable=1;locked=0;connectable=1;" parent="4abhhRwLtzeeiSmCrCQu-13" vertex="1">
          <mxGeometry y="108.63786022295517" width="256" height="28.94950974141637" as="geometry" />
        </mxCell>
        <mxCell id="4abhhRwLtzeeiSmCrCQu-26" value="" style="endArrow=diamondThin;endFill=1;endSize=24;html=1;rounded=0;exitX=0;exitY=0.5;exitDx=0;exitDy=0;" parent="e1jJYObIYilY-aPVNplS-69" source="4abhhRwLtzeeiSmCrCQu-0" target="e1jJYObIYilY-aPVNplS-53" edge="1">
          <mxGeometry width="160" relative="1" as="geometry">
            <mxPoint x="256" y="463.19215586266193" as="sourcePoint" />
            <mxPoint x="426.6666666666667" y="463.19215586266193" as="targetPoint" />
          </mxGeometry>
        </mxCell>
        <mxCell id="Vz9f1gssuTOusqs6ggo8-31" value="search traking" style="swimlane;fontStyle=0;childLayout=stackLayout;horizontal=1;startSize=26;fillColor=none;horizontalStack=0;resizeParent=1;resizeParentMax=0;resizeLast=0;collapsible=1;marginBottom=0;whiteSpace=wrap;html=1;" vertex="1" parent="e1jJYObIYilY-aPVNplS-69">
          <mxGeometry x="448" y="782.2117219497469" width="149.33333333333334" height="201.62702576459267" as="geometry" />
        </mxCell>
        <mxCell id="Vz9f1gssuTOusqs6ggo8-32" value="ID:PKEY" style="text;strokeColor=none;fillColor=none;align=left;verticalAlign=top;spacingLeft=4;spacingRight=4;overflow=hidden;rotatable=0;points=[[0,0.5],[1,0.5]];portConstraint=eastwest;whiteSpace=wrap;html=1;" vertex="1" parent="Vz9f1gssuTOusqs6ggo8-31">
          <mxGeometry y="26" width="149.33333333333334" height="25.08957510922752" as="geometry" />
        </mxCell>
        <mxCell id="Vz9f1gssuTOusqs6ggo8-33" value="term:string" style="text;strokeColor=none;fillColor=none;align=left;verticalAlign=top;spacingLeft=4;spacingRight=4;overflow=hidden;rotatable=0;points=[[0,0.5],[1,0.5]];portConstraint=eastwest;whiteSpace=wrap;html=1;" vertex="1" parent="Vz9f1gssuTOusqs6ggo8-31">
          <mxGeometry y="51.089575109227525" width="149.33333333333334" height="25.08957510922752" as="geometry" />
        </mxCell>
        <mxCell id="Vz9f1gssuTOusqs6ggo8-38" value="categoriescolaire:string" style="text;strokeColor=none;fillColor=none;align=left;verticalAlign=top;spacingLeft=4;spacingRight=4;overflow=hidden;rotatable=0;points=[[0,0.5],[1,0.5]];portConstraint=eastwest;whiteSpace=wrap;html=1;" vertex="1" parent="Vz9f1gssuTOusqs6ggo8-31">
          <mxGeometry y="76.17915021845505" width="149.33333333333334" height="25.08957510922752" as="geometry" />
        </mxCell>
        <mxCell id="Vz9f1gssuTOusqs6ggo8-39" value="niveau:string" style="text;strokeColor=none;fillColor=none;align=left;verticalAlign=top;spacingLeft=4;spacingRight=4;overflow=hidden;rotatable=0;points=[[0,0.5],[1,0.5]];portConstraint=eastwest;whiteSpace=wrap;html=1;" vertex="1" parent="Vz9f1gssuTOusqs6ggo8-31">
          <mxGeometry y="101.26872532768257" width="149.33333333333334" height="25.08957510922752" as="geometry" />
        </mxCell>
        <mxCell id="Vz9f1gssuTOusqs6ggo8-40" value="matiere:string" style="text;strokeColor=none;fillColor=none;align=left;verticalAlign=top;spacingLeft=4;spacingRight=4;overflow=hidden;rotatable=0;points=[[0,0.5],[1,0.5]];portConstraint=eastwest;whiteSpace=wrap;html=1;" vertex="1" parent="Vz9f1gssuTOusqs6ggo8-31">
          <mxGeometry y="126.3583004369101" width="149.33333333333334" height="25.08957510922752" as="geometry" />
        </mxCell>
        <mxCell id="Vz9f1gssuTOusqs6ggo8-36" value="IDmaker:FKEY" style="text;strokeColor=none;fillColor=none;align=left;verticalAlign=top;spacingLeft=4;spacingRight=4;overflow=hidden;rotatable=0;points=[[0,0.5],[1,0.5]];portConstraint=eastwest;whiteSpace=wrap;html=1;" vertex="1" parent="Vz9f1gssuTOusqs6ggo8-31">
          <mxGeometry y="151.44787554613762" width="149.33333333333334" height="25.08957510922752" as="geometry" />
        </mxCell>
        <mxCell id="Vz9f1gssuTOusqs6ggo8-35" value="mostSearched():string" style="text;strokeColor=none;fillColor=none;align=left;verticalAlign=top;spacingLeft=4;spacingRight=4;overflow=hidden;rotatable=0;points=[[0,0.5],[1,0.5]];portConstraint=eastwest;whiteSpace=wrap;html=1;fontStyle=4" vertex="1" parent="Vz9f1gssuTOusqs6ggo8-31">
          <mxGeometry y="176.53745065536515" width="149.33333333333334" height="25.08957510922752" as="geometry" />
        </mxCell>
        <mxCell id="Vz9f1gssuTOusqs6ggo8-37" value="" style="endArrow=none;html=1;rounded=0;entryX=1.005;entryY=-0.019;entryDx=0;entryDy=0;exitX=0;exitY=-0.019;exitDx=0;exitDy=0;exitPerimeter=0;entryPerimeter=0;" edge="1" parent="Vz9f1gssuTOusqs6ggo8-31" source="Vz9f1gssuTOusqs6ggo8-35" target="Vz9f1gssuTOusqs6ggo8-35">
          <mxGeometry width="50" height="50" relative="1" as="geometry">
            <mxPoint x="-128" y="260.5455876727474" as="sourcePoint" />
            <mxPoint x="-74.66666666666667" y="212.29640477038674" as="targetPoint" />
          </mxGeometry>
        </mxCell>
        <mxCell id="Vz9f1gssuTOusqs6ggo8-50" value="visit trak" style="swimlane;fontStyle=1;align=center;verticalAlign=top;childLayout=stackLayout;horizontal=1;startSize=26;horizontalStack=0;resizeParent=1;resizeParentMax=0;resizeLast=0;collapsible=1;marginBottom=0;whiteSpace=wrap;html=1;" vertex="1" parent="e1jJYObIYilY-aPVNplS-69">
          <mxGeometry x="650.6666666666666" y="840.5040415605722" width="192" height="159.16774481051533" as="geometry" />
        </mxCell>
        <mxCell id="Vz9f1gssuTOusqs6ggo8-51" value="ID:Pkey" style="text;strokeColor=none;fillColor=none;align=left;verticalAlign=top;spacingLeft=4;spacingRight=4;overflow=hidden;rotatable=0;points=[[0,0.5],[1,0.5]];portConstraint=eastwest;whiteSpace=wrap;html=1;" vertex="1" parent="Vz9f1gssuTOusqs6ggo8-50">
          <mxGeometry y="26" width="192" height="25.089575109227525" as="geometry" />
        </mxCell>
        <mxCell id="Vz9f1gssuTOusqs6ggo8-56" value="IDwatcher:Fkey" style="text;strokeColor=none;fillColor=none;align=left;verticalAlign=top;spacingLeft=4;spacingRight=4;overflow=hidden;rotatable=0;points=[[0,0.5],[1,0.5]];portConstraint=eastwest;whiteSpace=wrap;html=1;" vertex="1" parent="Vz9f1gssuTOusqs6ggo8-50">
          <mxGeometry y="51.089575109227525" width="192" height="25.089575109227525" as="geometry" />
        </mxCell>
        <mxCell id="Vz9f1gssuTOusqs6ggo8-57" value="IDcontenue:Fkey" style="text;strokeColor=none;fillColor=none;align=left;verticalAlign=top;spacingLeft=4;spacingRight=4;overflow=hidden;rotatable=0;points=[[0,0.5],[1,0.5]];portConstraint=eastwest;whiteSpace=wrap;html=1;" vertex="1" parent="Vz9f1gssuTOusqs6ggo8-50">
          <mxGeometry y="76.17915021845505" width="192" height="25.089575109227525" as="geometry" />
        </mxCell>
        <mxCell id="Vz9f1gssuTOusqs6ggo8-58" value="typeContenue:TypeContenue" style="text;strokeColor=none;fillColor=none;align=left;verticalAlign=top;spacingLeft=4;spacingRight=4;overflow=hidden;rotatable=0;points=[[0,0.5],[1,0.5]];portConstraint=eastwest;whiteSpace=wrap;html=1;" vertex="1" parent="Vz9f1gssuTOusqs6ggo8-50">
          <mxGeometry y="101.26872532768257" width="192" height="25.089575109227525" as="geometry" />
        </mxCell>
        <mxCell id="Vz9f1gssuTOusqs6ggo8-52" value="" style="line;strokeWidth=1;fillColor=none;align=left;verticalAlign=middle;spacingTop=-1;spacingLeft=3;spacingRight=3;rotatable=0;labelPosition=right;points=[];portConstraint=eastwest;strokeColor=inherit;" vertex="1" parent="Vz9f1gssuTOusqs6ggo8-50">
          <mxGeometry y="126.3583004369101" width="192" height="7.7198692643777" as="geometry" />
        </mxCell>
        <mxCell id="Vz9f1gssuTOusqs6ggo8-53" value="&lt;sup&gt;mostViewed(): string,int&lt;/sup&gt;&lt;div style=&quot;line-height: 0%;&quot;&gt;&lt;span style=&quot;font-size: 10px;&quot;&gt;______&lt;/span&gt;&lt;/div&gt;" style="text;strokeColor=none;fillColor=none;align=left;verticalAlign=top;spacingLeft=4;spacingRight=4;overflow=hidden;rotatable=0;points=[[0,0.5],[1,0.5]];portConstraint=eastwest;whiteSpace=wrap;html=1;fontStyle=4" vertex="1" parent="Vz9f1gssuTOusqs6ggo8-50">
          <mxGeometry y="134.0781697012878" width="192" height="25.089575109227525" as="geometry" />
        </mxCell>
        <mxCell id="Vz9f1gssuTOusqs6ggo8-59" value="TypeContenue" style="swimlane;fontStyle=0;childLayout=stackLayout;horizontal=1;startSize=26;fillColor=none;horizontalStack=0;resizeParent=1;resizeParentMax=0;resizeLast=0;collapsible=1;marginBottom=0;whiteSpace=wrap;html=1;" vertex="1" parent="e1jJYObIYilY-aPVNplS-69">
          <mxGeometry x="885.3333333333334" y="941.3203942926077" width="149.33333333333334" height="128.19252524907293" as="geometry" />
        </mxCell>
        <mxCell id="Vz9f1gssuTOusqs6ggo8-60" value="+ course" style="text;strokeColor=none;fillColor=none;align=left;verticalAlign=top;spacingLeft=4;spacingRight=4;overflow=hidden;rotatable=0;points=[[0,0.5],[1,0.5]];portConstraint=eastwest;whiteSpace=wrap;html=1;" vertex="1" parent="Vz9f1gssuTOusqs6ggo8-59">
          <mxGeometry y="26" width="149.33333333333334" height="25.548131312268232" as="geometry" />
        </mxCell>
        <mxCell id="Vz9f1gssuTOusqs6ggo8-61" value="+ chapter" style="text;strokeColor=none;fillColor=none;align=left;verticalAlign=top;spacingLeft=4;spacingRight=4;overflow=hidden;rotatable=0;points=[[0,0.5],[1,0.5]];portConstraint=eastwest;whiteSpace=wrap;html=1;" vertex="1" parent="Vz9f1gssuTOusqs6ggo8-59">
          <mxGeometry y="51.54813131226823" width="149.33333333333334" height="25.548131312268232" as="geometry" />
        </mxCell>
        <mxCell id="Vz9f1gssuTOusqs6ggo8-62" value="+ document" style="text;strokeColor=none;fillColor=none;align=left;verticalAlign=top;spacingLeft=4;spacingRight=4;overflow=hidden;rotatable=0;points=[[0,0.5],[1,0.5]];portConstraint=eastwest;whiteSpace=wrap;html=1;" vertex="1" parent="Vz9f1gssuTOusqs6ggo8-59">
          <mxGeometry y="77.09626262453646" width="149.33333333333334" height="25.548131312268232" as="geometry" />
        </mxCell>
        <mxCell id="Vz9f1gssuTOusqs6ggo8-63" value="+ prof" style="text;strokeColor=none;fillColor=none;align=left;verticalAlign=top;spacingLeft=4;spacingRight=4;overflow=hidden;rotatable=0;points=[[0,0.5],[1,0.5]];portConstraint=eastwest;whiteSpace=wrap;html=1;" vertex="1" parent="Vz9f1gssuTOusqs6ggo8-59">
          <mxGeometry y="102.6443939368047" width="149.33333333333334" height="25.548131312268232" as="geometry" />
        </mxCell>
        <mxCell id="Vz9f1gssuTOusqs6ggo8-64" value="" style="endArrow=block;dashed=1;endFill=0;endSize=12;html=1;rounded=0;entryX=-0.014;entryY=0.087;entryDx=0;entryDy=0;entryPerimeter=0;exitX=1;exitY=0.5;exitDx=0;exitDy=0;" edge="1" parent="e1jJYObIYilY-aPVNplS-69" source="Vz9f1gssuTOusqs6ggo8-58" target="Vz9f1gssuTOusqs6ggo8-59">
          <mxGeometry width="160" relative="1" as="geometry">
            <mxPoint x="832" y="815.7513288928093" as="sourcePoint" />
            <mxPoint x="1002.6666666666666" y="815.7513288928093" as="targetPoint" />
          </mxGeometry>
        </mxCell>
        <mxCell id="Vz9f1gssuTOusqs6ggo8-68" value="" style="endArrow=diamondThin;endFill=1;endSize=24;html=1;rounded=0;exitX=0.2;exitY=-0.003;exitDx=0;exitDy=0;exitPerimeter=0;entryX=1;entryY=0.5;entryDx=0;entryDy=0;" edge="1" parent="e1jJYObIYilY-aPVNplS-69" source="e1jJYObIYilY-aPVNplS-30" target="Vz9f1gssuTOusqs6ggo8-67">
          <mxGeometry width="160" relative="1" as="geometry">
            <mxPoint x="170.66666666666666" y="520.9651983666373" as="sourcePoint" />
            <mxPoint x="405.3333333333333" y="432.52935920878576" as="targetPoint" />
            <Array as="points">
              <mxPoint x="428.8" y="422.52678708751307" />
            </Array>
          </mxGeometry>
        </mxCell>
        <mxCell id="OGS3B3dBSdwTEnX2FD4Q-67" value="Event (calender)" style="swimlane;fontStyle=1;align=center;verticalAlign=top;childLayout=stackLayout;horizontal=1;startSize=26;horizontalStack=0;resizeParent=1;resizeParentMax=0;resizeLast=0;collapsible=1;marginBottom=0;whiteSpace=wrap;html=1;" parent="e1jJYObIYilY-aPVNplS-69" vertex="1">
          <mxGeometry x="490.6666666666667" y="324.2598364507797" width="170.66666666666666" height="214.44041701783812" as="geometry" />
        </mxCell>
        <mxCell id="OGS3B3dBSdwTEnX2FD4Q-68" value="ID:Pkey" style="text;strokeColor=none;fillColor=none;align=left;verticalAlign=top;spacingLeft=4;spacingRight=4;overflow=hidden;rotatable=0;points=[[0,0.5],[1,0.5]];portConstraint=eastwest;whiteSpace=wrap;html=1;" parent="OGS3B3dBSdwTEnX2FD4Q-67" vertex="1">
          <mxGeometry y="26" width="170.66666666666666" height="29.874700258925557" as="geometry" />
        </mxCell>
        <mxCell id="OGS3B3dBSdwTEnX2FD4Q-71" value="IdCour:Fkey" style="text;strokeColor=none;fillColor=none;align=left;verticalAlign=top;spacingLeft=4;spacingRight=4;overflow=hidden;rotatable=0;points=[[0,0.5],[1,0.5]];portConstraint=eastwest;whiteSpace=wrap;html=1;" parent="OGS3B3dBSdwTEnX2FD4Q-67" vertex="1">
          <mxGeometry y="55.87470025892556" width="170.66666666666666" height="29.874700258925557" as="geometry" />
        </mxCell>
        <mxCell id="OGS3B3dBSdwTEnX2FD4Q-74" value="Name:string" style="text;strokeColor=none;fillColor=none;align=left;verticalAlign=top;spacingLeft=4;spacingRight=4;overflow=hidden;rotatable=0;points=[[0,0.5],[1,0.5]];portConstraint=eastwest;whiteSpace=wrap;html=1;" parent="OGS3B3dBSdwTEnX2FD4Q-67" vertex="1">
          <mxGeometry y="85.74940051785111" width="170.66666666666666" height="29.874700258925557" as="geometry" />
        </mxCell>
        <mxCell id="OGS3B3dBSdwTEnX2FD4Q-75" value="Start:Date" style="text;strokeColor=none;fillColor=none;align=left;verticalAlign=top;spacingLeft=4;spacingRight=4;overflow=hidden;rotatable=0;points=[[0,0.5],[1,0.5]];portConstraint=eastwest;whiteSpace=wrap;html=1;" parent="OGS3B3dBSdwTEnX2FD4Q-67" vertex="1">
          <mxGeometry y="115.62410077677667" width="170.66666666666666" height="29.874700258925557" as="geometry" />
        </mxCell>
        <mxCell id="OGS3B3dBSdwTEnX2FD4Q-76" value="End:Date" style="text;strokeColor=none;fillColor=none;align=left;verticalAlign=top;spacingLeft=4;spacingRight=4;overflow=hidden;rotatable=0;points=[[0,0.5],[1,0.5]];portConstraint=eastwest;whiteSpace=wrap;html=1;" parent="OGS3B3dBSdwTEnX2FD4Q-67" vertex="1">
          <mxGeometry y="145.49880103570223" width="170.66666666666666" height="29.874700258925557" as="geometry" />
        </mxCell>
        <mxCell id="OGS3B3dBSdwTEnX2FD4Q-77" value="Details:string" style="text;strokeColor=none;fillColor=none;align=left;verticalAlign=top;spacingLeft=4;spacingRight=4;overflow=hidden;rotatable=0;points=[[0,0.5],[1,0.5]];portConstraint=eastwest;whiteSpace=wrap;html=1;" parent="OGS3B3dBSdwTEnX2FD4Q-67" vertex="1">
          <mxGeometry y="175.37350129462777" width="170.66666666666666" height="29.874700258925557" as="geometry" />
        </mxCell>
        <mxCell id="OGS3B3dBSdwTEnX2FD4Q-69" value="" style="line;strokeWidth=1;fillColor=none;align=left;verticalAlign=middle;spacingTop=-1;spacingLeft=3;spacingRight=3;rotatable=0;labelPosition=right;points=[];portConstraint=eastwest;strokeColor=inherit;" parent="OGS3B3dBSdwTEnX2FD4Q-67" vertex="1">
          <mxGeometry y="205.24820155355332" width="170.66666666666666" height="9.192215464284788" as="geometry" />
        </mxCell>
        <mxCell id="Vz9f1gssuTOusqs6ggo8-69" value="categorieScolaire" style="swimlane;fontStyle=0;childLayout=stackLayout;horizontal=1;startSize=26;fillColor=none;horizontalStack=0;resizeParent=1;resizeParentMax=0;resizeLast=0;collapsible=1;marginBottom=0;whiteSpace=wrap;html=1;" vertex="1" parent="e1jJYObIYilY-aPVNplS-69">
          <mxGeometry x="352" y="1004.129492503384" width="149.33333333333334" height="102.6443939368047" as="geometry" />
        </mxCell>
        <mxCell id="Vz9f1gssuTOusqs6ggo8-70" value="+ ecole" style="text;strokeColor=none;fillColor=none;align=left;verticalAlign=top;spacingLeft=4;spacingRight=4;overflow=hidden;rotatable=0;points=[[0,0.5],[1,0.5]];portConstraint=eastwest;whiteSpace=wrap;html=1;" vertex="1" parent="Vz9f1gssuTOusqs6ggo8-69">
          <mxGeometry y="26" width="149.33333333333334" height="25.548131312268232" as="geometry" />
        </mxCell>
        <mxCell id="Vz9f1gssuTOusqs6ggo8-71" value="+ college" style="text;strokeColor=none;fillColor=none;align=left;verticalAlign=top;spacingLeft=4;spacingRight=4;overflow=hidden;rotatable=0;points=[[0,0.5],[1,0.5]];portConstraint=eastwest;whiteSpace=wrap;html=1;" vertex="1" parent="Vz9f1gssuTOusqs6ggo8-69">
          <mxGeometry y="51.54813131226823" width="149.33333333333334" height="25.548131312268232" as="geometry" />
        </mxCell>
        <mxCell id="Vz9f1gssuTOusqs6ggo8-72" value="+ lycee" style="text;strokeColor=none;fillColor=none;align=left;verticalAlign=top;spacingLeft=4;spacingRight=4;overflow=hidden;rotatable=0;points=[[0,0.5],[1,0.5]];portConstraint=eastwest;whiteSpace=wrap;html=1;" vertex="1" parent="Vz9f1gssuTOusqs6ggo8-69">
          <mxGeometry y="77.09626262453646" width="149.33333333333334" height="25.548131312268232" as="geometry" />
        </mxCell>
        <mxCell id="Vz9f1gssuTOusqs6ggo8-73" value="" style="endArrow=block;dashed=1;endFill=0;endSize=12;html=1;rounded=0;exitX=1;exitY=0.5;exitDx=0;exitDy=0;entryX=0.2;entryY=-0.001;entryDx=0;entryDy=0;entryPerimeter=0;" edge="1" parent="e1jJYObIYilY-aPVNplS-69" source="OGS3B3dBSdwTEnX2FD4Q-24" target="Vz9f1gssuTOusqs6ggo8-69">
          <mxGeometry width="160" relative="1" as="geometry">
            <mxPoint x="373.3333333333333" y="815.5744572144936" as="sourcePoint" />
            <mxPoint x="544" y="815.5744572144936" as="targetPoint" />
            <Array as="points">
              <mxPoint x="384" y="986.5504129196734" />
            </Array>
          </mxGeometry>
        </mxCell>
        <mxCell id="Vz9f1gssuTOusqs6ggo8-87" value="0&lt;span style=&quot;color: rgba(0, 0, 0, 0); font-family: monospace; font-size: 0px; text-align: start; text-wrap: nowrap;&quot;&gt;%3CmxGraphModel%3E%3Croot%3E%3CmxCell%20id%3D%220%22%2F%3E%3CmxCell%20id%3D%221%22%20parent%3D%220%22%2F%3E%3CmxCell%20id%3D%222%22%20value%3D%22%22%20style%3D%22endArrow%3Dclassic%3Bhtml%3D1%3Brounded%3D0%3BexitX%3D0%3BexitY%3D1%3BexitDx%3D0%3BexitDy%3D0%3BentryX%3D0.628%3BentryY%3D-0.016%3BentryDx%3D0%3BentryDy%3D0%3BentryPerimeter%3D0%3B%22%20edge%3D%221%22%20parent%3D%221%22%3E%3CmxGeometry%20relative%3D%221%22%20as%3D%22geometry%22%3E%3CmxPoint%20x%3D%2260%22%20y%3D%22464%22%20as%3D%22sourcePoint%22%2F%3E%3CmxPoint%20x%3D%22-6%22%20y%3D%22756%22%20as%3D%22targetPoint%22%2F%3E%3CArray%20as%3D%22points%22%3E%3CmxPoint%20y%3D%22464%22%2F%3E%3C%2FArray%3E%3C%2FmxGeometry%3E%3C%2FmxCell%3E%3CmxCell%20id%3D%223%22%20value%3D%22%26lt%3Bspan%20style%3D%26quot%3Bfont-size%3A%2014px%3B%26quot%3B%26gt%3Bcreate%26amp%3Bgt%3B%26lt%3B%2Fspan%26gt%3B%22%20style%3D%22edgeLabel%3Bresizable%3D0%3Bhtml%3D1%3B%3Balign%3Dcenter%3BverticalAlign%3Dmiddle%3B%22%20connectable%3D%220%22%20vertex%3D%221%22%20parent%3D%222%22%3E%3CmxGeometry%20relative%3D%221%22%20as%3D%22geometry%22%3E%3CmxPoint%20y%3D%22-2%22%20as%3D%22offset%22%2F%3E%3C%2FmxGeometry%3E%3C%2FmxCell%3E%3C%2Froot%3E%3C%2FmxGraphModel%3E&lt;/span&gt;..*" style="text;html=1;align=center;verticalAlign=middle;whiteSpace=wrap;rounded=0;movable=1;resizable=1;rotatable=1;deletable=1;editable=1;locked=0;connectable=1;" vertex="1" parent="e1jJYObIYilY-aPVNplS-69">
          <mxGeometry x="53.333333333333336" y="186.69788266657554" width="64" height="29.47861305261719" as="geometry" />
        </mxCell>
        <mxCell id="Vz9f1gssuTOusqs6ggo8-91" value="Report" style="swimlane;fontStyle=1;align=center;verticalAlign=top;childLayout=stackLayout;horizontal=1;startSize=26;horizontalStack=0;resizeParent=1;resizeParentMax=0;resizeLast=0;collapsible=1;marginBottom=0;whiteSpace=wrap;html=1;" vertex="1" parent="e1jJYObIYilY-aPVNplS-69">
          <mxGeometry x="885.3366666666666" y="736.9653263154298" width="200" height="161.1430638389984" as="geometry" />
        </mxCell>
        <mxCell id="Vz9f1gssuTOusqs6ggo8-92" value="+ ID: Pkey" style="text;strokeColor=none;fillColor=none;align=left;verticalAlign=top;spacingLeft=4;spacingRight=4;overflow=hidden;rotatable=0;points=[[0,0.5],[1,0.5]];portConstraint=eastwest;whiteSpace=wrap;html=1;" vertex="1" parent="Vz9f1gssuTOusqs6ggo8-91">
          <mxGeometry y="26" width="200" height="25.548131312268236" as="geometry" />
        </mxCell>
        <mxCell id="Vz9f1gssuTOusqs6ggo8-93" value="+ IDreporter: Fkey" style="text;strokeColor=none;fillColor=none;align=left;verticalAlign=top;spacingLeft=4;spacingRight=4;overflow=hidden;rotatable=0;points=[[0,0.5],[1,0.5]];portConstraint=eastwest;whiteSpace=wrap;html=1;" vertex="1" parent="Vz9f1gssuTOusqs6ggo8-91">
          <mxGeometry y="51.54813131226824" width="200" height="25.548131312268236" as="geometry" />
        </mxCell>
        <mxCell id="Vz9f1gssuTOusqs6ggo8-94" value="+ IDreported: Fkey" style="text;strokeColor=none;fillColor=none;align=left;verticalAlign=top;spacingLeft=4;spacingRight=4;overflow=hidden;rotatable=0;points=[[0,0.5],[1,0.5]];portConstraint=eastwest;whiteSpace=wrap;html=1;" vertex="1" parent="Vz9f1gssuTOusqs6ggo8-91">
          <mxGeometry y="77.09626262453648" width="200" height="25.548131312268236" as="geometry" />
        </mxCell>
        <mxCell id="Vz9f1gssuTOusqs6ggo8-95" value="+description:string" style="text;strokeColor=none;fillColor=none;align=left;verticalAlign=top;spacingLeft=4;spacingRight=4;overflow=hidden;rotatable=0;points=[[0,0.5],[1,0.5]];portConstraint=eastwest;whiteSpace=wrap;html=1;" vertex="1" parent="Vz9f1gssuTOusqs6ggo8-91">
          <mxGeometry y="102.64439393680472" width="200" height="25.548131312268236" as="geometry" />
        </mxCell>
        <mxCell id="Vz9f1gssuTOusqs6ggo8-97" value="typeContenue:TypeContenue" style="text;strokeColor=none;fillColor=none;align=left;verticalAlign=top;spacingLeft=4;spacingRight=4;overflow=hidden;rotatable=0;points=[[0,0.5],[1,0.5]];portConstraint=eastwest;whiteSpace=wrap;html=1;" vertex="1" parent="Vz9f1gssuTOusqs6ggo8-91">
          <mxGeometry y="128.19252524907296" width="200" height="25.089575109227525" as="geometry" />
        </mxCell>
        <mxCell id="Vz9f1gssuTOusqs6ggo8-96" value="" style="line;strokeWidth=1;fillColor=none;align=left;verticalAlign=middle;spacingTop=-1;spacingLeft=3;spacingRight=3;rotatable=0;labelPosition=right;points=[];portConstraint=eastwest;strokeColor=inherit;" vertex="1" parent="Vz9f1gssuTOusqs6ggo8-91">
          <mxGeometry y="153.28210035830048" width="200" height="7.860963480697919" as="geometry" />
        </mxCell>
        <mxCell id="Vz9f1gssuTOusqs6ggo8-98" value="" style="endArrow=block;dashed=1;endFill=0;endSize=12;html=1;rounded=0;exitX=1.018;exitY=0.822;exitDx=0;exitDy=0;exitPerimeter=0;entryX=0.998;entryY=0.095;entryDx=0;entryDy=0;entryPerimeter=0;" edge="1" parent="e1jJYObIYilY-aPVNplS-69" source="Vz9f1gssuTOusqs6ggo8-97" target="Vz9f1gssuTOusqs6ggo8-59">
          <mxGeometry width="160" relative="1" as="geometry">
            <mxPoint x="853.0000000000001" y="963.9506468205822" as="sourcePoint" />
            <mxPoint x="1030.6666666666665" y="953.1418220346226" as="targetPoint" />
            <Array as="points">
              <mxPoint x="1088.6666666666665" y="953.1418220346226" />
            </Array>
          </mxGeometry>
        </mxCell>
        <mxCell id="4abhhRwLtzeeiSmCrCQu-25" value="" style="endArrow=diamondThin;endFill=1;endSize=24;html=1;rounded=0;exitX=0;exitY=0.25;exitDx=0;exitDy=0;entryX=1;entryY=0;entryDx=0;entryDy=0;" parent="WIyWlLk6GJQsqaUBKTNV-1" source="4abhhRwLtzeeiSmCrCQu-13" target="zkfFHV4jXpPFQw0GAbJ--0" edge="1">
          <mxGeometry width="160" relative="1" as="geometry">
            <mxPoint x="613" y="440" as="sourcePoint" />
            <mxPoint x="693" y="170" as="targetPoint" />
            <Array as="points">
              <mxPoint x="183" y="91" />
            </Array>
          </mxGeometry>
        </mxCell>
        <mxCell id="Vz9f1gssuTOusqs6ggo8-0" value="" style="endArrow=diamondThin;endFill=1;endSize=24;html=1;rounded=0;entryX=1;entryY=0.25;entryDx=0;entryDy=0;exitX=-0.029;exitY=0.069;exitDx=0;exitDy=0;exitPerimeter=0;" edge="1" parent="WIyWlLk6GJQsqaUBKTNV-1" source="4abhhRwLtzeeiSmCrCQu-13" target="e1jJYObIYilY-aPVNplS-6">
          <mxGeometry width="160" relative="1" as="geometry">
            <mxPoint x="763" y="65" as="sourcePoint" />
            <mxPoint x="233" y="260" as="targetPoint" />
            <Array as="points" />
          </mxGeometry>
        </mxCell>
        <mxCell id="Vz9f1gssuTOusqs6ggo8-7" value="service stream" style="swimlane;whiteSpace=wrap;html=1;" vertex="1" parent="WIyWlLk6GJQsqaUBKTNV-1">
          <mxGeometry x="-570" y="670" width="820" height="470" as="geometry" />
        </mxCell>
        <mxCell id="Vz9f1gssuTOusqs6ggo8-1" value="Stream" style="swimlane;fontStyle=1;align=center;verticalAlign=top;childLayout=stackLayout;horizontal=1;startSize=26;horizontalStack=0;resizeParent=1;resizeParentMax=0;resizeLast=0;collapsible=1;marginBottom=0;whiteSpace=wrap;html=1;" vertex="1" parent="Vz9f1gssuTOusqs6ggo8-7">
          <mxGeometry x="250" y="88.18" width="250" height="164" as="geometry" />
        </mxCell>
        <mxCell id="Vz9f1gssuTOusqs6ggo8-2" value="ID:Pkey" style="text;strokeColor=none;fillColor=none;align=left;verticalAlign=top;spacingLeft=4;spacingRight=4;overflow=hidden;rotatable=0;points=[[0,0.5],[1,0.5]];portConstraint=eastwest;whiteSpace=wrap;html=1;" vertex="1" parent="Vz9f1gssuTOusqs6ggo8-1">
          <mxGeometry y="26" width="250" height="26" as="geometry" />
        </mxCell>
        <mxCell id="Vz9f1gssuTOusqs6ggo8-6" value="IDcour:Fkey" style="text;strokeColor=none;fillColor=none;align=left;verticalAlign=top;spacingLeft=4;spacingRight=4;overflow=hidden;rotatable=0;points=[[0,0.5],[1,0.5]];portConstraint=eastwest;whiteSpace=wrap;html=1;" vertex="1" parent="Vz9f1gssuTOusqs6ggo8-1">
          <mxGeometry y="52" width="250" height="26" as="geometry" />
        </mxCell>
        <mxCell id="Vz9f1gssuTOusqs6ggo8-3" value="" style="line;strokeWidth=1;fillColor=none;align=left;verticalAlign=middle;spacingTop=-1;spacingLeft=3;spacingRight=3;rotatable=0;labelPosition=right;points=[];portConstraint=eastwest;strokeColor=inherit;" vertex="1" parent="Vz9f1gssuTOusqs6ggo8-1">
          <mxGeometry y="78" width="250" height="8" as="geometry" />
        </mxCell>
        <mxCell id="Vz9f1gssuTOusqs6ggo8-24" value="&lt;div style=&quot;font-size: 11px;&quot;&gt;+ TimeViewd(): int&lt;/div&gt;" style="text;strokeColor=none;fillColor=none;align=left;verticalAlign=top;spacingLeft=4;spacingRight=4;overflow=hidden;rotatable=0;points=[[0,0.5],[1,0.5]];portConstraint=eastwest;whiteSpace=wrap;html=1;" vertex="1" parent="Vz9f1gssuTOusqs6ggo8-1">
          <mxGeometry y="86" width="250" height="30" as="geometry" />
        </mxCell>
        <mxCell id="Vz9f1gssuTOusqs6ggo8-89" value="+ AVG_rate: int&amp;nbsp;" style="text;strokeColor=none;fillColor=none;align=left;verticalAlign=top;spacingLeft=4;spacingRight=4;overflow=hidden;rotatable=0;points=[[0,0.5],[1,0.5]];portConstraint=eastwest;whiteSpace=wrap;html=1;" vertex="1" parent="Vz9f1gssuTOusqs6ggo8-1">
          <mxGeometry y="116" width="250" height="26" as="geometry" />
        </mxCell>
        <mxCell id="Vz9f1gssuTOusqs6ggo8-21" value="&lt;div style=&quot;font-size: 11px;&quot;&gt;+ NBviews(): int&lt;/div&gt;" style="text;strokeColor=none;fillColor=none;align=left;verticalAlign=top;spacingLeft=4;spacingRight=4;overflow=hidden;rotatable=0;points=[[0,0.5],[1,0.5]];portConstraint=eastwest;whiteSpace=wrap;html=1;fontStyle=0" vertex="1" parent="Vz9f1gssuTOusqs6ggo8-1">
          <mxGeometry y="142" width="250" height="22" as="geometry" />
        </mxCell>
        <mxCell id="Vz9f1gssuTOusqs6ggo8-18" value="views" style="swimlane;fontStyle=1;align=center;verticalAlign=top;childLayout=stackLayout;horizontal=1;startSize=26;horizontalStack=0;resizeParent=1;resizeParentMax=0;resizeLast=0;collapsible=1;marginBottom=0;whiteSpace=wrap;html=1;" vertex="1" parent="Vz9f1gssuTOusqs6ggo8-7">
          <mxGeometry x="613" y="70" width="200" height="138" as="geometry" />
        </mxCell>
        <mxCell id="Vz9f1gssuTOusqs6ggo8-19" value="+ ID: Pkey" style="text;strokeColor=none;fillColor=none;align=left;verticalAlign=top;spacingLeft=4;spacingRight=4;overflow=hidden;rotatable=0;points=[[0,0.5],[1,0.5]];portConstraint=eastwest;whiteSpace=wrap;html=1;" vertex="1" parent="Vz9f1gssuTOusqs6ggo8-18">
          <mxGeometry y="26" width="200" height="26" as="geometry" />
        </mxCell>
        <mxCell id="Vz9f1gssuTOusqs6ggo8-22" value="+ IDwatcher: Fkey" style="text;strokeColor=none;fillColor=none;align=left;verticalAlign=top;spacingLeft=4;spacingRight=4;overflow=hidden;rotatable=0;points=[[0,0.5],[1,0.5]];portConstraint=eastwest;whiteSpace=wrap;html=1;" vertex="1" parent="Vz9f1gssuTOusqs6ggo8-18">
          <mxGeometry y="52" width="200" height="26" as="geometry" />
        </mxCell>
        <mxCell id="Vz9f1gssuTOusqs6ggo8-23" value="+ IDstream: Fkey" style="text;strokeColor=none;fillColor=none;align=left;verticalAlign=top;spacingLeft=4;spacingRight=4;overflow=hidden;rotatable=0;points=[[0,0.5],[1,0.5]];portConstraint=eastwest;whiteSpace=wrap;html=1;" vertex="1" parent="Vz9f1gssuTOusqs6ggo8-18">
          <mxGeometry y="78" width="200" height="26" as="geometry" />
        </mxCell>
        <mxCell id="Vz9f1gssuTOusqs6ggo8-25" value="+ Rate: int 1-5" style="text;strokeColor=none;fillColor=none;align=left;verticalAlign=top;spacingLeft=4;spacingRight=4;overflow=hidden;rotatable=0;points=[[0,0.5],[1,0.5]];portConstraint=eastwest;whiteSpace=wrap;html=1;" vertex="1" parent="Vz9f1gssuTOusqs6ggo8-18">
          <mxGeometry y="104" width="200" height="26" as="geometry" />
        </mxCell>
        <mxCell id="Vz9f1gssuTOusqs6ggo8-20" value="" style="line;strokeWidth=1;fillColor=none;align=left;verticalAlign=middle;spacingTop=-1;spacingLeft=3;spacingRight=3;rotatable=0;labelPosition=right;points=[];portConstraint=eastwest;strokeColor=inherit;" vertex="1" parent="Vz9f1gssuTOusqs6ggo8-18">
          <mxGeometry y="130" width="200" height="8" as="geometry" />
        </mxCell>
        <mxCell id="Vz9f1gssuTOusqs6ggo8-27" value="have" style="endArrow=open;html=1;endSize=12;startArrow=diamondThin;startSize=14;startFill=0;edgeStyle=orthogonalEdgeStyle;rounded=0;entryX=0;entryY=0.5;entryDx=0;entryDy=0;exitX=1;exitY=0.5;exitDx=0;exitDy=0;" edge="1" parent="Vz9f1gssuTOusqs6ggo8-7" source="Vz9f1gssuTOusqs6ggo8-2" target="Vz9f1gssuTOusqs6ggo8-23">
          <mxGeometry relative="1" as="geometry">
            <mxPoint x="430" y="130" as="sourcePoint" />
            <mxPoint x="590" y="130" as="targetPoint" />
          </mxGeometry>
        </mxCell>
        <mxCell id="Vz9f1gssuTOusqs6ggo8-28" value="1" style="edgeLabel;resizable=0;html=1;align=left;verticalAlign=top;" connectable="0" vertex="1" parent="Vz9f1gssuTOusqs6ggo8-27">
          <mxGeometry x="-1" relative="1" as="geometry" />
        </mxCell>
        <mxCell id="Vz9f1gssuTOusqs6ggo8-29" value="0..*" style="edgeLabel;resizable=0;html=1;align=right;verticalAlign=top;" connectable="0" vertex="1" parent="Vz9f1gssuTOusqs6ggo8-27">
          <mxGeometry x="1" relative="1" as="geometry" />
        </mxCell>
        <mxCell id="Vz9f1gssuTOusqs6ggo8-74" value="streamReport" style="swimlane;fontStyle=1;align=center;verticalAlign=top;childLayout=stackLayout;horizontal=1;startSize=26;horizontalStack=0;resizeParent=1;resizeParentMax=0;resizeLast=0;collapsible=1;marginBottom=0;whiteSpace=wrap;html=1;" vertex="1" parent="Vz9f1gssuTOusqs6ggo8-7">
          <mxGeometry x="483.5" y="278.18" width="200" height="138" as="geometry" />
        </mxCell>
        <mxCell id="Vz9f1gssuTOusqs6ggo8-75" value="+ ID: Pkey" style="text;strokeColor=none;fillColor=none;align=left;verticalAlign=top;spacingLeft=4;spacingRight=4;overflow=hidden;rotatable=0;points=[[0,0.5],[1,0.5]];portConstraint=eastwest;whiteSpace=wrap;html=1;" vertex="1" parent="Vz9f1gssuTOusqs6ggo8-74">
          <mxGeometry y="26" width="200" height="26" as="geometry" />
        </mxCell>
        <mxCell id="Vz9f1gssuTOusqs6ggo8-76" value="+ IDreporter: Fkey" style="text;strokeColor=none;fillColor=none;align=left;verticalAlign=top;spacingLeft=4;spacingRight=4;overflow=hidden;rotatable=0;points=[[0,0.5],[1,0.5]];portConstraint=eastwest;whiteSpace=wrap;html=1;" vertex="1" parent="Vz9f1gssuTOusqs6ggo8-74">
          <mxGeometry y="52" width="200" height="26" as="geometry" />
        </mxCell>
        <mxCell id="Vz9f1gssuTOusqs6ggo8-77" value="+ IDstream: Fkey" style="text;strokeColor=none;fillColor=none;align=left;verticalAlign=top;spacingLeft=4;spacingRight=4;overflow=hidden;rotatable=0;points=[[0,0.5],[1,0.5]];portConstraint=eastwest;whiteSpace=wrap;html=1;" vertex="1" parent="Vz9f1gssuTOusqs6ggo8-74">
          <mxGeometry y="78" width="200" height="26" as="geometry" />
        </mxCell>
        <mxCell id="Vz9f1gssuTOusqs6ggo8-78" value="+description:string" style="text;strokeColor=none;fillColor=none;align=left;verticalAlign=top;spacingLeft=4;spacingRight=4;overflow=hidden;rotatable=0;points=[[0,0.5],[1,0.5]];portConstraint=eastwest;whiteSpace=wrap;html=1;" vertex="1" parent="Vz9f1gssuTOusqs6ggo8-74">
          <mxGeometry y="104" width="200" height="26" as="geometry" />
        </mxCell>
        <mxCell id="Vz9f1gssuTOusqs6ggo8-79" value="" style="line;strokeWidth=1;fillColor=none;align=left;verticalAlign=middle;spacingTop=-1;spacingLeft=3;spacingRight=3;rotatable=0;labelPosition=right;points=[];portConstraint=eastwest;strokeColor=inherit;" vertex="1" parent="Vz9f1gssuTOusqs6ggo8-74">
          <mxGeometry y="130" width="200" height="8" as="geometry" />
        </mxCell>
        <mxCell id="Vz9f1gssuTOusqs6ggo8-80" value="have" style="endArrow=open;html=1;endSize=12;startArrow=diamondThin;startSize=14;startFill=0;edgeStyle=orthogonalEdgeStyle;rounded=0;entryX=0;entryY=0.5;entryDx=0;entryDy=0;exitX=0.465;exitY=0.975;exitDx=0;exitDy=0;exitPerimeter=0;" edge="1" parent="Vz9f1gssuTOusqs6ggo8-7" target="Vz9f1gssuTOusqs6ggo8-77" source="Vz9f1gssuTOusqs6ggo8-21">
          <mxGeometry relative="1" as="geometry">
            <mxPoint x="363" y="226.18600000000032" as="sourcePoint" />
            <mxPoint x="463.5" y="318.18" as="targetPoint" />
          </mxGeometry>
        </mxCell>
        <mxCell id="Vz9f1gssuTOusqs6ggo8-81" value="1" style="edgeLabel;resizable=0;html=1;align=left;verticalAlign=top;" connectable="0" vertex="1" parent="Vz9f1gssuTOusqs6ggo8-80">
          <mxGeometry x="-1" relative="1" as="geometry" />
        </mxCell>
        <mxCell id="Vz9f1gssuTOusqs6ggo8-82" value="0..*" style="edgeLabel;resizable=0;html=1;align=right;verticalAlign=top;" connectable="0" vertex="1" parent="Vz9f1gssuTOusqs6ggo8-80">
          <mxGeometry x="1" relative="1" as="geometry" />
        </mxCell>
        <mxCell id="Vz9f1gssuTOusqs6ggo8-13" value="" style="endArrow=classic;html=1;rounded=0;exitX=0;exitY=1;exitDx=0;exitDy=0;entryX=0.628;entryY=-0.016;entryDx=0;entryDy=0;entryPerimeter=0;" edge="1" parent="WIyWlLk6GJQsqaUBKTNV-1" source="zkfFHV4jXpPFQw0GAbJ--0" target="Vz9f1gssuTOusqs6ggo8-1">
          <mxGeometry relative="1" as="geometry">
            <mxPoint x="-7" y="790" as="sourcePoint" />
            <mxPoint x="93" y="790" as="targetPoint" />
            <Array as="points">
              <mxPoint x="-157" y="464" />
            </Array>
          </mxGeometry>
        </mxCell>
        <mxCell id="Vz9f1gssuTOusqs6ggo8-14" value="&lt;span style=&quot;font-size: 14px;&quot;&gt;create&amp;gt;&lt;/span&gt;" style="edgeLabel;resizable=0;html=1;;align=center;verticalAlign=middle;" connectable="0" vertex="1" parent="Vz9f1gssuTOusqs6ggo8-13">
          <mxGeometry relative="1" as="geometry">
            <mxPoint y="-2" as="offset" />
          </mxGeometry>
        </mxCell>
        <mxCell id="Vz9f1gssuTOusqs6ggo8-85" value="" style="endArrow=classic;html=1;rounded=0;entryX=0;entryY=0.5;entryDx=0;entryDy=0;movable=1;resizable=1;rotatable=1;deletable=1;editable=1;locked=0;connectable=1;" edge="1" parent="WIyWlLk6GJQsqaUBKTNV-1" source="zkfFHV4jXpPFQw0GAbJ--0" target="e1jJYObIYilY-aPVNplS-70">
          <mxGeometry relative="1" as="geometry">
            <mxPoint x="389" y="360" as="sourcePoint" />
            <mxPoint x="323" y="652" as="targetPoint" />
            <Array as="points">
              <mxPoint x="343" y="312" />
              <mxPoint x="483" y="310" />
            </Array>
          </mxGeometry>
        </mxCell>
        <mxCell id="Vz9f1gssuTOusqs6ggo8-86" value="&lt;span style=&quot;font-size: 14px;&quot;&gt;create&amp;gt;&lt;/span&gt;" style="edgeLabel;resizable=0;html=1;;align=center;verticalAlign=middle;movable=0;rotatable=0;deletable=0;editable=0;locked=1;connectable=0;" connectable="0" vertex="1" parent="Vz9f1gssuTOusqs6ggo8-85">
          <mxGeometry relative="1" as="geometry">
            <mxPoint y="-2" as="offset" />
          </mxGeometry>
        </mxCell>
      </root>
    </mxGraphModel>
  </diagram>
</mxfile>
